<?xml version="1.0" encoding="utf-8"?>
<!-- Generator: Adobe Illustrator 25.4.1, SVG Export Plug-In . SVG Version: 6.00 Build 0)  -->
<svg version="1.1" id="Layer_1" xmlns="http://www.w3.org/2000/svg" xmlns:xlink="http://www.w3.org/1999/xlink" x="0px" y="0px"
	 viewBox="0 0 1000 1000" style="enable-background:new 0 0 1000 1000;" xml:space="preserve">
<g>
	<path d="M176.39,693.79c0-2.02-0.4-3.88-1.21-5.57c-0.81-1.69-1.87-3.2-3.17-4.55c-1.3-1.35-2.78-2.54-4.42-3.58
		c-1.64-1.03-3.31-1.9-4.99-2.6c-1.69-0.7-3.32-1.21-4.89-1.55c-1.57-0.34-2.92-0.51-4.05-0.51c-1.71,0-3.34,0.1-4.89,0.3
		c-1.55,0.2-2.93,0.44-4.15,0.71c-1.21,0.27-2.26,0.51-3.14,0.71c-0.88,0.2-1.5,0.3-1.86,0.3c-0.36,0-0.64-0.42-0.84-1.25
		c-0.2-0.83-0.36-1.83-0.47-3c-0.11-1.17-0.18-2.41-0.2-3.71c-0.02-1.3-0.03-2.43-0.03-3.37c0-0.9,0.63-1.99,1.89-3.27
		c1.26-1.28,3.33-2.53,6.21-3.74c2.88-1.21,6.61-2.26,11.2-3.14c4.59-0.88,10.23-1.36,16.93-1.45c0.45-1.17,0.84-2.48,1.18-3.95
		c0.34-1.46,0.42-2.87,0.24-4.22c-0.09-0.54-0.25-1.01-0.47-1.42c-0.23-0.4-0.4-0.75-0.54-1.05c-0.14-0.29-0.15-0.52-0.03-0.67
		c0.11-0.16,0.48-0.28,1.11-0.37c0.63-0.09,1.42,0.03,2.36,0.37c0.94,0.34,1.88,0.84,2.8,1.52c0.92,0.67,1.73,1.51,2.43,2.5
		c0.7,0.99,1.11,2.07,1.25,3.24c0.14,1.17,0.03,2.35-0.3,3.54c-0.34,1.19-0.78,2.37-1.32,3.54c-0.54,1.17-1.12,2.33-1.75,3.47
		c-0.63,1.15-1.17,2.26-1.62,3.34c-0.5,1.08-0.62,2.02-0.37,2.83c0.25,0.81,0.53,1.5,0.84,2.06c0.31,0.56,0.46,1,0.44,1.32
		c-0.02,0.32-0.55,0.54-1.59,0.67c-0.45,0.09-0.93-0.01-1.45-0.3c-0.52-0.29-1.01-0.65-1.48-1.08c-0.47-0.43-0.91-0.89-1.32-1.38
		c-0.4-0.49-0.74-0.92-1.01-1.28c-5.49,0.05-9.82,0.17-12.99,0.37c-3.17,0.2-5.57,0.44-7.19,0.71c-1.89,0.32-3.15,0.67-3.78,1.08
		c5.53,0.58,10.48,1.87,14.84,3.85c1.84,0.85,3.67,1.89,5.46,3.1c1.8,1.21,3.4,2.68,4.79,4.39c1.39,1.71,2.52,3.7,3.37,5.97
		c0.85,2.27,1.28,4.85,1.28,7.72c0,3.01-0.51,6.06-1.52,9.14c-1.01,3.08-2.42,6.06-4.22,8.94c-1.8,2.88-3.94,5.59-6.41,8.13
		c-2.47,2.54-5.15,4.76-8.03,6.65c-2.88,1.89-5.9,3.37-9.07,4.45c-3.17,1.08-6.38,1.62-9.61,1.62c-2.43,0-4.63-0.41-6.61-1.21
		c-1.98-0.81-3.74-1.87-5.3-3.17c-1.55-1.31-2.89-2.81-4.01-4.52c-1.12-1.71-2.06-3.47-2.8-5.3c-0.74-1.82-1.29-3.62-1.65-5.4
		c-0.36-1.78-0.54-3.41-0.54-4.89c0-2.2,0.65-4.63,1.96-7.29c1.3-2.65,3.11-5.15,5.43-7.49c2.32-2.34,5.07-4.29,8.26-5.87
		c3.19-1.57,6.68-2.36,10.46-2.36c2.52,0,4.7,0.32,6.54,0.94c1.84,0.63,3.42,1.43,4.72,2.39c1.3,0.97,2.36,2.04,3.17,3.2
		c0.81,1.17,1.44,2.31,1.89,3.41c0.45,1.1,0.75,2.1,0.91,3c0.16,0.9,0.24,1.55,0.24,1.96c0,0.63-0.11,1.18-0.34,1.65
		c-0.23,0.47-0.48,0.85-0.78,1.15c-0.29,0.29-0.55,0.47-0.78,0.54c-0.23,0.07-0.34-0.03-0.34-0.3c0-0.27-0.2-0.85-0.61-1.75
		c-0.4-0.9-1.24-1.84-2.5-2.83c-1.26-0.99-3.03-1.88-5.3-2.66c-2.27-0.79-5.3-1.18-9.07-1.18c-3.78,0-6.98,0.52-9.61,1.55
		c-2.63,1.04-4.77,2.27-6.41,3.71c-1.64,1.44-2.84,2.92-3.61,4.45c-0.76,1.53-1.15,2.79-1.15,3.78c0,0.99,0.33,2.28,0.98,3.88
		c0.65,1.6,1.73,3.15,3.24,4.66c1.51,1.51,3.46,2.8,5.87,3.88c2.41,1.08,5.36,1.62,8.87,1.62c3.1,0,6.12-0.46,9.04-1.38
		c2.92-0.92,5.67-2.16,8.23-3.71c2.56-1.55,4.9-3.32,7.02-5.3c2.11-1.98,3.94-4.05,5.46-6.21c1.53-2.16,2.72-4.32,3.58-6.48
		C175.96,697.64,176.39,695.64,176.39,693.79z"/>
	<path d="M201.29,682.73c0.99,0,1.89,0.37,2.7,1.11c0.81,0.74,1.45,1.56,1.92,2.46c0.47,0.9,0.76,1.72,0.88,2.46
		c0.11,0.74-0.01,1.11-0.37,1.11c-1.3,0-2.84,0.56-4.62,1.69c-1.78,1.13-3.58,2.55-5.4,4.26c-1.82,1.71-3.58,3.56-5.26,5.55
		c-1.69,1.98-3.08,3.83-4.18,5.55c-1.1,1.71-1.83,3.14-2.19,4.26c-0.36,1.13-0.13,1.69,0.67,1.69c0.27,0,0.84-0.38,1.72-1.15
		c0.88-0.76,1.89-1.73,3.04-2.9c1.15-1.17,2.34-2.45,3.58-3.85c1.24-1.39,2.36-2.7,3.37-3.91c1.01-1.21,1.82-2.27,2.43-3.17
		c0.61-0.9,0.87-1.46,0.78-1.69c-0.18-0.31-0.03-0.47,0.44-0.47c0.47,0,1.03,0.18,1.69,0.54c0.65,0.36,1.26,0.92,1.82,1.69
		c0.56,0.77,0.84,1.75,0.84,2.97c0,1.21-0.32,2.53-0.94,3.95c-0.63,1.42-1.28,2.72-1.96,3.91c-0.67,1.19-1.19,2.18-1.55,2.97
		c-0.36,0.79-0.27,1.18,0.27,1.18s1.51-0.63,2.9-1.89c1.39-1.26,2.97-2.87,4.72-4.82c1.75-1.96,3.58-4.12,5.46-6.48
		c1.89-2.36,3.58-4.67,5.06-6.91c0.27-0.36,0.56-0.6,0.88-0.71c0.31-0.11,0.6-0.1,0.84,0.03c0.25,0.14,0.38,0.38,0.4,0.74
		c0.02,0.36-0.15,0.81-0.51,1.35c-0.27,0.36-0.84,1.16-1.72,2.39c-0.88,1.24-1.95,2.68-3.2,4.32c-1.26,1.64-2.65,3.37-4.18,5.19
		c-1.53,1.82-3.06,3.5-4.59,5.02c-1.53,1.53-2.99,2.77-4.39,3.74c-1.39,0.97-2.61,1.46-3.64,1.46c-0.67,0-1.35-0.22-2.02-0.67
		c-0.67-0.45-1.26-0.99-1.75-1.62c-0.5-0.63-0.9-1.28-1.21-1.96c-0.32-0.67-0.47-1.21-0.47-1.62c0-0.41,0.06-0.84,0.17-1.32
		c0.11-0.47,0.24-0.91,0.37-1.32c0.18-0.49,0.38-0.99,0.61-1.48c-1.62,1.84-3.15,3.51-4.59,4.99c-1.21,1.26-2.43,2.41-3.64,3.44
		c-1.21,1.04-2.14,1.55-2.77,1.55c-0.63,0-1.3-0.19-2.02-0.57c-0.72-0.38-1.41-0.91-2.06-1.59c-0.65-0.67-1.19-1.49-1.62-2.46
		c-0.43-0.97-0.64-2.06-0.64-3.27c0-1.3,0.42-2.84,1.25-4.62c0.83-1.78,1.92-3.62,3.27-5.53c1.35-1.91,2.89-3.8,4.62-5.67
		c1.73-1.87,3.49-3.54,5.26-5.03c1.78-1.48,3.5-2.68,5.16-3.58C198.56,683.18,200.03,682.73,201.29,682.73z"/>
	<path d="M250.6,692.31c0.22-0.36,0.51-0.6,0.84-0.71c0.34-0.11,0.62-0.1,0.84,0.03c0.22,0.14,0.35,0.38,0.37,0.74
		c0.02,0.36-0.15,0.81-0.51,1.35c-0.23,0.36-0.77,1.08-1.62,2.16c-0.86,1.08-1.92,2.36-3.2,3.85c-1.28,1.48-2.69,3.07-4.22,4.76
		c-1.53,1.69-3.08,3.28-4.66,4.79c-1.57,1.51-3.1,2.84-4.59,4c-1.48,1.16-2.79,1.95-3.91,2.37l-0.2,0.28l-0.81,1.28
		c-2.16,3.24-4.48,6.33-6.95,9.28c-2.47,2.95-5.02,5.57-7.62,7.86c-2.43,2.29-4.76,4.14-6.98,5.53c-2.23,1.39-4.67,2.09-7.32,2.09
		c-0.67,0-1.36-0.13-2.06-0.4c-0.7-0.27-1.35-0.69-1.96-1.25c-0.61-0.56-1.12-1.26-1.55-2.09c-0.43-0.83-0.69-1.81-0.78-2.94
		c-0.04-0.54,0.27-1.17,0.94-1.89c0.67-0.72,1.58-1.5,2.7-2.33c1.12-0.83,2.41-1.69,3.85-2.57c1.44-0.88,2.92-1.72,4.45-2.53
		c3.55-1.94,7.62-3.94,12.21-6.01c0.4-0.45,0.87-1.06,1.38-1.82c0.52-0.77,1.07-1.6,1.65-2.5c-0.77,0.46-1.39,0.69-1.89,0.69
		c-0.67,0-1.39-0.14-2.16-0.41c-0.77-0.28-1.47-0.71-2.13-1.31c-0.65-0.6-1.21-1.35-1.69-2.25c-0.47-0.9-0.78-1.98-0.91-3.24
		c-0.09-0.81,0.12-1.87,0.64-3.17c0.52-1.3,1.16-2.73,1.92-4.28c0.76-1.55,1.61-3.19,2.53-4.92c0.92-1.73,1.76-3.43,2.53-5.09
		c0.76-1.66,1.38-3.23,1.86-4.69c0.47-1.46,0.66-2.73,0.57-3.81c-0.05-0.4,0.21-0.55,0.78-0.44c0.56,0.11,1.2,0.45,1.92,1.01
		c0.72,0.56,1.39,1.35,2.02,2.36c0.63,1.01,1.01,2.19,1.15,3.54c0.09,0.9-0.17,2.11-0.78,3.64c-0.61,1.53-1.36,3.18-2.26,4.96
		c-0.9,1.78-1.84,3.57-2.83,5.36c-0.99,1.8-1.82,3.44-2.5,4.92c-0.67,1.48-1.11,2.69-1.32,3.61c-0.2,0.92,0.06,1.38,0.78,1.38
		c0.76,0,1.75-0.58,2.97-1.75c1.21-1.17,2.48-2.67,3.81-4.52c1.33-1.84,2.65-3.92,3.98-6.24c1.33-2.32,2.52-4.62,3.58-6.92
		c1.06-2.29,1.88-4.45,2.46-6.48c0.58-2.02,0.83-3.69,0.74-4.99c-0.05-0.31,0.18-0.37,0.67-0.17c0.49,0.2,1.05,0.63,1.65,1.28
		c0.61,0.65,1.18,1.48,1.72,2.5c0.54,1.01,0.88,2.17,1.01,3.47c0.04,0.9-0.12,2.08-0.51,3.54c-0.38,1.46-0.97,3.12-1.75,4.96
		c-0.79,1.84-1.75,3.87-2.9,6.07c-1.15,2.2-2.44,4.52-3.88,6.95c1.08-0.76,2.38-1.83,3.91-3.2c1.53-1.37,3.13-2.92,4.79-4.66
		c1.66-1.73,3.31-3.55,4.92-5.46C247.97,695.96,249.39,694.11,250.6,692.31z M197.84,737.65c0.81,0,1.7-0.21,2.66-0.64
		c0.97-0.43,1.93-0.98,2.9-1.65c0.97-0.67,1.95-1.45,2.93-2.33c0.99-0.88,1.93-1.77,2.83-2.67c2.11-2.16,4.23-4.59,6.34-7.29
		c-3.78,1.93-7.15,3.73-10.12,5.4c-1.26,0.72-2.5,1.44-3.71,2.16c-1.21,0.72-2.28,1.4-3.2,2.06c-0.92,0.65-1.66,1.25-2.23,1.79
		c-0.56,0.54-0.82,0.94-0.78,1.21c0.09,0.63,0.35,1.11,0.78,1.45C196.69,737.48,197.22,737.65,197.84,737.65z"/>
	<path d="M274.82,692.85c0.27-0.36,0.56-0.6,0.88-0.71c0.31-0.11,0.6-0.1,0.84,0.03c0.25,0.14,0.38,0.38,0.4,0.74
		c0.02,0.36-0.15,0.81-0.51,1.35c-0.23,0.36-0.83,1.16-1.82,2.39c-0.99,1.24-2.23,2.68-3.71,4.32c-1.48,1.64-3.13,3.37-4.92,5.19
		c-1.8,1.82-3.63,3.49-5.5,4.99c-1.87,1.51-3.69,2.76-5.46,3.74c-1.78,0.99-3.39,1.48-4.82,1.48c-1.21-0.09-2.29-0.45-3.24-1.08
		c-0.81-0.54-1.55-1.36-2.23-2.46c-0.67-1.1-1.01-2.71-1.01-4.82c0-2.02,0.4-4.06,1.21-6.11c0.81-2.05,1.86-4,3.14-5.87
		c1.28-1.87,2.71-3.61,4.28-5.23c1.57-1.62,3.11-3.04,4.62-4.25c1.51-1.21,2.91-2.16,4.22-2.83c1.3-0.67,2.34-1.01,3.1-1.01
		c0.45,0,0.94,0.1,1.48,0.3c0.54,0.2,1.05,0.57,1.52,1.11c0.47,0.54,0.88,1.31,1.21,2.29c0.34,0.99,0.51,2.29,0.51,3.91
		c0,1.08-0.36,2.26-1.08,3.54c-0.72,1.28-1.64,2.56-2.77,3.85c-1.12,1.28-2.37,2.53-3.74,3.74c-1.37,1.21-2.72,2.29-4.05,3.24
		c-1.33,0.94-2.54,1.7-3.64,2.26c-1.1,0.56-1.95,0.84-2.53,0.84c-0.4,0.85-0.67,1.62-0.81,2.29c-0.09,0.59-0.03,1.1,0.17,1.55
		c0.2,0.45,0.75,0.68,1.65,0.68c1.12,0,2.65-0.6,4.59-1.79c1.93-1.19,3.99-2.72,6.17-4.59c2.18-1.87,4.33-3.96,6.44-6.27
		C271.54,697.38,273.34,695.1,274.82,692.85z M263.62,691.1c-0.27,0-0.65,0.2-1.15,0.61c-0.5,0.41-1.02,0.94-1.59,1.62
		c-0.56,0.67-1.17,1.44-1.82,2.29c-0.65,0.85-1.29,1.71-1.92,2.56c-1.48,2.11-3.08,4.48-4.79,7.08c2.29-1.35,4.27-2.84,5.94-4.49
		c1.66-1.64,2.99-3.18,3.98-4.62c0.99-1.44,1.6-2.64,1.82-3.61C264.32,691.58,264.16,691.1,263.62,691.1z"/>
	<path d="M291.08,712.89c0.49,0,1.47-0.63,2.93-1.89c1.46-1.26,3.13-2.87,4.99-4.82c1.87-1.96,3.78-4.12,5.73-6.48
		c1.96-2.36,3.68-4.67,5.16-6.92c0.27-0.36,0.56-0.6,0.88-0.71c0.31-0.11,0.6-0.1,0.84,0.03c0.25,0.13,0.38,0.38,0.4,0.74
		c0.02,0.36-0.15,0.81-0.51,1.35c-0.23,0.36-0.8,1.16-1.72,2.39c-0.92,1.24-2.05,2.68-3.37,4.32c-1.33,1.64-2.79,3.37-4.39,5.19
		c-1.6,1.82-3.18,3.5-4.76,5.03c-1.57,1.53-3.08,2.79-4.52,3.78c-1.44,0.99-2.68,1.48-3.71,1.48c-0.81,0-1.59-0.15-2.33-0.44
		c-0.74-0.29-1.39-0.78-1.96-1.45c-0.56-0.67-1.02-1.57-1.38-2.7c-0.36-1.12-0.54-2.5-0.54-4.12c-1.31,1.66-2.54,3.13-3.71,4.39
		c-1.04,1.08-2.1,2.07-3.2,2.97c-1.1,0.9-2.01,1.35-2.73,1.35c-0.72,0-1.5-0.15-2.33-0.44c-0.83-0.29-1.61-0.78-2.33-1.45
		c-0.72-0.67-1.32-1.54-1.79-2.6c-0.47-1.06-0.71-2.35-0.71-3.88c0-1.53,0.4-3.22,1.21-5.06c0.81-1.84,1.88-3.7,3.2-5.57
		c1.33-1.87,2.82-3.66,4.49-5.4c1.66-1.73,3.34-3.27,5.03-4.62c1.69-1.35,3.29-2.43,4.82-3.24c1.53-0.81,2.83-1.21,3.91-1.21
		c1.17,0,2.16,0.21,2.97,0.64c0.81,0.43,1.46,0.89,1.96,1.38c0.54,0.58,0.97,1.24,1.28,1.96c2.74-4.45,5.19-8.55,7.35-12.28
		c0.94-1.57,1.86-3.16,2.73-4.76c0.88-1.6,1.66-3.08,2.36-4.45c0.7-1.37,1.26-2.57,1.69-3.61c0.43-1.03,0.64-1.8,0.64-2.29
		c0-0.54,0.3-0.9,0.91-1.08c0.61-0.18,1.26-0.06,1.96,0.37c0.7,0.43,1.35,1.24,1.96,2.43c0.61,1.19,0.91,2.87,0.91,5.03
		c0,0.99-0.42,2.41-1.25,4.25c-0.83,1.84-1.91,3.95-3.24,6.31c-1.33,2.36-2.82,4.89-4.49,7.59c-1.66,2.7-3.33,5.39-4.99,8.06
		c-1.66,2.68-3.25,5.24-4.76,7.69c-1.51,2.45-2.78,4.62-3.81,6.51c-1.04,1.89-1.74,3.4-2.13,4.52
		C290.39,712.33,290.49,712.89,291.08,712.89z M274.35,713.09c0.67,0,1.69-0.61,3.04-1.82c1.35-1.21,2.81-2.73,4.38-4.55
		c1.57-1.82,3.16-3.8,4.76-5.94c1.6-2.14,2.96-4.12,4.08-5.94c1.12-1.82,1.9-3.34,2.33-4.55c0.43-1.21,0.28-1.82-0.44-1.82
		c-0.54,0-1.38,0.42-2.53,1.25c-1.15,0.83-2.41,1.92-3.78,3.27c-1.37,1.35-2.79,2.89-4.25,4.62c-1.46,1.73-2.8,3.49-4.01,5.26
		c-1.21,1.78-2.2,3.51-2.97,5.19c-0.77,1.69-1.15,3.18-1.15,4.49c0,0.09,0.02,0.18,0.07,0.27
		C273.97,713,274.12,713.09,274.35,713.09z"/>
	<path d="M368.8,650.01c-1.48,0-3.3,0.34-5.43,1.01c-2.14,0.67-4.37,1.61-6.71,2.8c-2.34,1.19-4.66,2.61-6.95,4.25
		c-2.29,1.64-4.35,3.43-6.17,5.36c-1.82,1.93-3.31,4-4.45,6.21c-1.15,2.2-1.72,4.43-1.72,6.68c0,1.89,0.69,3.33,2.06,4.32
		c1.37,0.99,3.14,1.48,5.3,1.48c1.26,0,2.38-0.19,3.37-0.57c0.99-0.38,1.71-1.07,2.16-2.06c0.36-0.76,0.45-1.51,0.27-2.23
		c-0.18-0.72-0.45-1.36-0.81-1.92c-0.36-0.56-0.72-1.02-1.08-1.38c-0.36-0.36-0.52-0.58-0.47-0.67c0.14-0.41,0.4-0.65,0.81-0.74
		c0.4-0.09,0.79-0.03,1.15,0.17c0.36,0.2,0.56,0.33,0.61,0.37c0.09,0.14,0.22,0.29,0.4,0.47c0.22,0.22,0.49,0.65,0.81,1.28
		c0.22,0.5,0.36,1.16,0.4,1.99c0.04,0.83-0.18,1.79-0.67,2.87c-0.77,1.62-2,2.87-3.71,3.74c-1.71,0.88-3.62,1.32-5.73,1.32
		c-1.93,0-3.67-0.27-5.19-0.81c-1.53-0.54-2.83-1.26-3.91-2.16c-1.08-0.9-1.9-1.97-2.46-3.2c-0.56-1.24-0.84-2.55-0.84-3.95
		c0-2.02,0.54-4.09,1.62-6.21c1.08-2.11,2.55-4.17,4.42-6.17c1.87-2,4.06-3.89,6.58-5.67c2.52-1.78,5.25-3.33,8.2-4.66
		c2.95-1.33,6.02-2.37,9.21-3.14c3.19-0.76,6.39-1.15,9.58-1.15c2.52,0,4.53,0.48,6.04,1.45c1.51,0.97,2.65,2.12,3.44,3.47
		c0.79,1.35,1.3,2.76,1.55,4.22c0.25,1.46,0.37,2.66,0.37,3.61c0,1.71-0.54,3.72-1.62,6.04c-1.08,2.32-2.42,4.73-4.01,7.25
		c-1.6,2.52-3.34,5.03-5.23,7.52c-1.89,2.5-3.63,4.8-5.23,6.92c-1.6,2.11-2.93,3.91-4.01,5.4c-1.08,1.48-1.62,2.47-1.62,2.97
		c4.81-5.04,9.2-9.53,13.16-13.49c1.66-1.66,3.34-3.32,5.03-4.96c1.69-1.64,3.24-3.09,4.66-4.35c1.42-1.26,2.64-2.28,3.68-3.07
		c1.03-0.79,1.75-1.18,2.16-1.18c0.81,0,1.57,0.21,2.29,0.64c0.72,0.43,1.36,0.94,1.92,1.55c0.56,0.61,1.01,1.26,1.35,1.96
		c0.34,0.7,0.51,1.29,0.51,1.79c0,0.41-0.15,0.92-0.44,1.55c-0.29,0.63-0.69,1.35-1.18,2.16c-0.5,0.81-1.06,1.65-1.69,2.53
		c-0.63,0.88-1.26,1.74-1.89,2.6c-1.48,2.02-3.19,4.21-5.13,6.54c-2.56,3.24-4.99,6.44-7.29,9.61c-2.29,3.17-4.12,6.06-5.46,8.67
		c0.49-0.49,1.22-1.25,2.19-2.26c0.97-1.01,2.09-2.17,3.37-3.47c1.28-1.3,2.66-2.71,4.15-4.22c1.48-1.51,3.01-3.05,4.59-4.62
		c3.82-3.82,6.85-6.78,9.07-8.87c2.23-2.09,3.91-3.62,5.06-4.59c1.15-0.97,1.9-1.53,2.26-1.69c0.36-0.16,0.61-0.24,0.74-0.24
		c0.72,0,1.4,0.19,2.06,0.57c0.65,0.38,1.21,0.84,1.69,1.38c0.47,0.54,0.85,1.11,1.15,1.72c0.29,0.61,0.44,1.14,0.44,1.59
		c0,0.72-0.45,1.73-1.35,3.04c-0.9,1.31-2.05,2.88-3.44,4.72c-1.04,1.39-2.17,2.89-3.41,4.49c-1.24,1.6-2.38,3.28-3.44,5.06
		c-1.06,1.78-1.95,3.65-2.67,5.63c-0.72,1.98-1.08,4.05-1.08,6.21c0,2.65,0.42,5.09,1.25,7.32c0.83,2.23,1.92,4.15,3.27,5.77
		s2.88,2.89,4.59,3.81c1.71,0.92,3.44,1.38,5.19,1.38c2.07,0,3.73-0.43,4.99-1.28c1.26-0.85,2.26-1.81,3-2.87
		c0.74-1.06,1.27-2.01,1.59-2.87c0.31-0.85,0.54-1.28,0.67-1.28c0.85,0,1.51,0.29,1.96,0.88c0.18,0.31,0.29,0.65,0.34,1.01
		c0.04,0.36,0.06,0.71,0.03,1.05c-0.02,0.34-0.1,0.73-0.24,1.18c0,0.04-0.19,0.41-0.57,1.08c-0.38,0.67-1.02,1.44-1.92,2.29
		c-0.81,0.76-1.97,1.51-3.47,2.23c-1.51,0.72-3.45,1.08-5.84,1.08c-2.43,0-4.9-0.5-7.42-1.48c-2.52-0.99-4.81-2.44-6.88-4.35
		c-2.07-1.91-3.77-4.25-5.09-7.02c-1.33-2.77-1.99-5.93-1.99-9.48c0-2.02,0.25-3.97,0.74-5.84c0.49-1.87,1.12-3.61,1.89-5.23
		c0.76-1.62,1.6-3.11,2.5-4.49c0.9-1.37,1.75-2.6,2.56-3.68c1.03-1.44,2.06-2.72,3.07-3.85c1.01-1.12,1.86-2.05,2.53-2.77
		c-0.94,0.67-2.17,1.68-3.68,3c-1.51,1.33-3.17,2.86-4.99,4.59c-1.82,1.73-3.73,3.61-5.73,5.63c-2,2.02-3.96,4.05-5.87,6.07
		c-1.91,2.02-3.71,3.99-5.4,5.9c-1.69,1.91-3.14,3.63-4.35,5.16c-0.99,0.09-1.89-0.02-2.7-0.34c-0.67-0.27-1.29-0.79-1.86-1.55
		c-0.56-0.76-0.84-1.93-0.84-3.51c0-1.08,0.31-2.42,0.94-4.01c0.63-1.6,1.47-3.32,2.53-5.16c1.06-1.84,2.25-3.77,3.58-5.77
		c1.33-2,2.69-3.95,4.08-5.84c3.24-4.45,6.95-9.15,11.13-14.1c-0.67,0-1.7,0.46-3.07,1.38c-1.37,0.92-2.93,2.17-4.69,3.74
		c-1.75,1.58-3.64,3.38-5.67,5.43c-2.02,2.05-4.04,4.19-6.04,6.44c-2,2.25-3.92,4.51-5.77,6.78c-1.84,2.27-3.47,4.42-4.89,6.44
		c-1.42,2.02-2.55,3.86-3.41,5.5c-0.86,1.64-1.28,2.91-1.28,3.81c0,0.49-0.32,0.79-0.94,0.88c-0.63,0.09-1.34-0.06-2.13-0.44
		c-0.79-0.38-1.5-1.05-2.13-1.99c-0.63-0.94-0.94-2.23-0.94-3.85c0-3.01,0.76-6.27,2.29-9.78c1.53-3.51,3.43-7.07,5.7-10.69
		c2.27-3.62,4.74-7.21,7.42-10.76c2.68-3.55,5.15-6.87,7.42-9.95c2.27-3.08,4.17-5.84,5.7-8.26c1.53-2.43,2.29-4.34,2.29-5.74
		c0-1.35-0.6-2.54-1.79-3.58c-1.19-1.03-2.89-1.55-5.09-1.55H368.8z"/>
	<path d="M427.49,708.3c-0.49,0-0.96-0.09-1.38-0.27c-0.43-0.18-0.78-0.38-1.05-0.61c-0.27,0.36-0.52,0.65-0.74,0.88
		c-0.09,0.05-0.18,0.14-0.27,0.27c-0.09,0.09-0.19,0.2-0.3,0.34c-0.11,0.13-0.24,0.29-0.37,0.47c-1.62,1.71-3.37,3.22-5.26,4.52
		c-1.89,1.3-3.78,2.09-5.67,2.36c-0.05,0.05-0.11,0.07-0.2,0.07c-0.18,0-0.29,0.02-0.34,0.07h-0.68c-0.67,0-1.43-0.11-2.26-0.34
		c-0.83-0.22-1.62-0.64-2.36-1.25c-0.74-0.61-1.36-1.46-1.86-2.56c-0.49-1.1-0.74-2.55-0.74-4.35c0-2.02,0.33-4.05,0.98-6.07
		c0.65-2.02,1.53-3.96,2.63-5.8c1.1-1.84,2.36-3.58,3.78-5.19c1.42-1.62,2.88-3.02,4.39-4.22c1.51-1.19,3-2.12,4.49-2.8
		c1.48-0.67,2.83-1.01,4.05-1.01c1.89,0,3.51,0.53,4.86,1.59c1.35,1.06,2.45,2.31,3.31,3.74c0.14,0.23,0,0.52-0.4,0.88
		c-0.41,0.36-1.37,0.54-2.9,0.54c-1.84,0-3.69,0.6-5.53,1.79c-1.84,1.19-3.55,2.68-5.13,4.45c-1.58,1.78-2.96,3.7-4.15,5.77
		c-1.19,2.07-2.1,3.99-2.73,5.77c-0.63,1.78-0.91,3.26-0.84,4.45c0.07,1.19,0.6,1.79,1.59,1.79c0.99,0,2.14-0.4,3.44-1.21
		c1.3-0.81,2.54-1.73,3.71-2.77c1.39-1.17,2.79-2.5,4.18-3.98c-0.14-0.31-0.25-0.7-0.34-1.15c-0.09-0.36-0.16-0.79-0.2-1.28
		c-0.05-0.49-0.07-1.06-0.07-1.69c0-1.35,0.35-2.5,1.05-3.44c0.7-0.94,1.46-1.56,2.29-1.86c0.83-0.29,1.6-0.2,2.29,0.27
		c0.7,0.47,1.05,1.41,1.05,2.8c0,0.63-0.29,1.46-0.88,2.5c-0.58,1.04-1.42,2.27-2.5,3.71c0.09,0.09,0.28,0.19,0.57,0.3
		c0.29,0.11,0.53,0.17,0.71,0.17c0.81,0,1.62-0.3,2.43-0.91c0.81-0.61,1.69-1.48,2.63-2.63c0.94-1.15,1.97-2.54,3.07-4.18
		c1.1-1.64,2.33-3.5,3.68-5.57c0.22-0.36,0.51-0.6,0.84-0.71c0.34-0.11,0.62-0.1,0.84,0.03c0.22,0.14,0.35,0.38,0.37,0.74
		c0.02,0.36-0.15,0.81-0.51,1.35c-0.23,0.36-0.57,0.96-1.05,1.79c-0.47,0.83-1.06,1.77-1.75,2.8c-0.7,1.04-1.47,2.12-2.33,3.27
		c-0.85,1.15-1.74,2.19-2.67,3.14c-0.92,0.94-1.88,1.72-2.87,2.33C429.4,708,428.44,708.3,427.49,708.3z"/>
	<path d="M454.75,716.4c-1.08,0-2.02-0.31-2.83-0.94c-0.81-0.63-1.46-1.42-1.96-2.36c-0.5-0.94-0.87-1.98-1.11-3.1
		c-0.25-1.12-0.37-2.18-0.37-3.17c0-0.49,0.14-1.12,0.41-1.89c0.27-0.76,0.64-1.62,1.11-2.56c0.47-0.94,0.99-1.92,1.55-2.93
		c0.56-1.01,1.16-2.04,1.79-3.07c1.44-2.34,3.06-4.86,4.86-7.56c-4.18,3.82-7.92,7.44-11.2,10.86c-1.39,1.44-2.76,2.91-4.08,4.42
		c-1.33,1.51-2.52,2.96-3.58,4.35c-1.06,1.4-1.9,2.68-2.53,3.85c-0.63,1.17-0.94,2.16-0.94,2.97c0,0.67-0.3,1.02-0.91,1.05
		c-0.61,0.02-1.26-0.2-1.96-0.67c-0.7-0.47-1.35-1.14-1.96-1.99c-0.61-0.85-0.91-1.84-0.91-2.97c0-0.85,0.37-2.1,1.11-3.74
		c0.74-1.64,1.72-3.54,2.93-5.7c1.21-2.16,2.6-4.5,4.15-7.02c1.55-2.52,3.15-5.08,4.79-7.69c1.64-2.61,3.24-5.18,4.79-7.72
		c1.55-2.54,2.94-4.91,4.15-7.12c1.21-2.2,2.19-4.16,2.94-5.87c0.74-1.71,1.11-3.04,1.11-3.98c0-0.31,0.27-0.39,0.81-0.24
		c0.54,0.16,1.15,0.54,1.82,1.15c0.67,0.61,1.28,1.43,1.82,2.46c0.54,1.04,0.81,2.25,0.81,3.64c0,0.72-0.25,1.69-0.74,2.9
		c-0.5,1.21-1.15,2.59-1.96,4.12c-0.81,1.53-1.73,3.14-2.77,4.82c-1.04,1.69-2.09,3.36-3.17,5.03c-2.52,3.91-5.37,8.1-8.57,12.55
		c3.06-2.88,5.85-5.44,8.37-7.69c1.08-0.94,2.16-1.88,3.24-2.8c1.08-0.92,2.09-1.74,3.04-2.46c0.94-0.72,1.78-1.3,2.5-1.75
		c0.72-0.45,1.26-0.67,1.62-0.67c0.67,0,1.25,0.21,1.72,0.64c0.47,0.43,0.85,0.99,1.15,1.69c0.29,0.7,0.51,1.46,0.64,2.29
		c0.14,0.83,0.2,1.65,0.2,2.46c0,0.54-0.39,1.48-1.18,2.83c-0.79,1.35-1.72,2.88-2.8,4.59c-1.08,1.71-2.19,3.47-3.34,5.3
		c-1.15,1.82-2.08,3.49-2.8,4.99c-0.72,1.51-1.12,2.76-1.21,3.74c-0.09,0.99,0.41,1.48,1.48,1.48c0.49,0,1.46-0.63,2.9-1.89
		c1.44-1.26,3.07-2.87,4.89-4.82c1.82-1.96,3.71-4.12,5.67-6.48c1.96-2.36,3.68-4.67,5.16-6.92c0.27-0.36,0.56-0.6,0.88-0.71
		c0.31-0.11,0.58-0.1,0.81,0.03c0.22,0.13,0.35,0.38,0.37,0.74c0.02,0.36-0.15,0.81-0.51,1.35c-0.23,0.36-0.79,1.16-1.69,2.39
		c-0.9,1.24-2,2.68-3.31,4.32c-1.3,1.64-2.74,3.37-4.32,5.19c-1.58,1.82-3.15,3.5-4.72,5.03c-1.57,1.53-3.07,2.79-4.49,3.78
		C457.01,715.9,455.78,716.4,454.75,716.4z"/>
	<path d="M490.17,682.73c0.99,0,1.89,0.37,2.7,1.11c0.81,0.74,1.45,1.56,1.92,2.46c0.47,0.9,0.76,1.72,0.88,2.46
		c0.11,0.74-0.01,1.11-0.37,1.11c-1.3,0-2.84,0.56-4.62,1.69c-1.78,1.13-3.58,2.55-5.4,4.26c-1.82,1.71-3.58,3.56-5.26,5.55
		c-1.69,1.98-3.08,3.83-4.18,5.55c-1.1,1.71-1.83,3.14-2.19,4.26c-0.36,1.13-0.14,1.69,0.67,1.69c0.27,0,0.84-0.38,1.72-1.15
		c0.88-0.76,1.89-1.73,3.04-2.9c1.15-1.17,2.34-2.45,3.58-3.85c1.24-1.39,2.36-2.7,3.37-3.91c1.01-1.21,1.82-2.27,2.43-3.17
		c0.61-0.9,0.87-1.46,0.78-1.69c-0.18-0.31-0.03-0.47,0.44-0.47c0.47,0,1.03,0.18,1.69,0.54c0.65,0.36,1.26,0.92,1.82,1.69
		c0.56,0.77,0.84,1.75,0.84,2.97c0,1.21-0.32,2.53-0.94,3.95c-0.63,1.42-1.28,2.72-1.96,3.91c-0.67,1.19-1.19,2.18-1.55,2.97
		c-0.36,0.79-0.27,1.18,0.27,1.18s1.51-0.63,2.9-1.89c1.39-1.26,2.97-2.87,4.72-4.82c1.75-1.96,3.58-4.12,5.46-6.48
		c1.89-2.36,3.58-4.67,5.06-6.91c0.27-0.36,0.56-0.6,0.88-0.71s0.6-0.1,0.84,0.03c0.25,0.14,0.38,0.38,0.41,0.74
		c0.02,0.36-0.15,0.81-0.51,1.35c-0.27,0.36-0.84,1.16-1.72,2.39c-0.88,1.24-1.95,2.68-3.21,4.32c-1.26,1.64-2.65,3.37-4.18,5.19
		c-1.53,1.82-3.06,3.5-4.59,5.02c-1.53,1.53-2.99,2.77-4.38,3.74c-1.39,0.97-2.61,1.46-3.64,1.46c-0.67,0-1.35-0.22-2.02-0.67
		c-0.67-0.45-1.26-0.99-1.75-1.62c-0.5-0.63-0.9-1.28-1.21-1.96c-0.31-0.67-0.47-1.21-0.47-1.62c0-0.41,0.06-0.84,0.17-1.32
		c0.11-0.47,0.24-0.91,0.37-1.32c0.18-0.49,0.38-0.99,0.61-1.48c-1.62,1.84-3.15,3.51-4.59,4.99c-1.21,1.26-2.43,2.41-3.64,3.44
		c-1.21,1.04-2.14,1.55-2.77,1.55s-1.3-0.19-2.02-0.57c-0.72-0.38-1.41-0.91-2.06-1.59c-0.65-0.67-1.19-1.49-1.62-2.46
		c-0.43-0.97-0.64-2.06-0.64-3.27c0-1.3,0.42-2.84,1.25-4.62c0.83-1.78,1.92-3.62,3.27-5.53c1.35-1.91,2.89-3.8,4.62-5.67
		c1.73-1.87,3.49-3.54,5.26-5.03c1.78-1.48,3.5-2.68,5.16-3.58C487.44,683.18,488.91,682.73,490.17,682.73z"/>
	<path d="M535.37,716.4c-1.3,0-2.38-0.71-3.24-2.13c-0.85-1.42-1.28-3.41-1.28-5.97c0-0.72,0.16-1.55,0.47-2.5
		c0.31-0.94,0.73-1.94,1.25-3c0.52-1.06,1.11-2.14,1.79-3.24c0.68-1.1,1.37-2.19,2.09-3.27c1.62-2.47,3.49-5.08,5.6-7.83
		c-0.27,0-1.05,0.48-2.33,1.45c-1.28,0.97-2.77,2.16-4.45,3.58c-1.69,1.42-3.37,2.96-5.06,4.62c-1.69,1.67-3.07,3.19-4.15,4.59
		c-0.72,1.08-1.48,2.32-2.29,3.71c-0.81,1.39-1.56,2.73-2.26,4.01c-0.7,1.28-1.27,2.44-1.72,3.47c-0.45,1.04-0.68,1.71-0.68,2.02
		c0,0.45-0.2,0.56-0.61,0.34c-0.4-0.22-0.87-0.7-1.38-1.42c-0.52-0.72-0.98-1.62-1.38-2.7c-0.4-1.08-0.61-2.27-0.61-3.58
		c0-0.72,0.16-1.55,0.47-2.5c0.31-0.94,0.73-1.96,1.25-3.04c0.52-1.08,1.11-2.18,1.79-3.31c0.67-1.12,1.37-2.23,2.09-3.31
		c1.66-2.52,3.55-5.17,5.67-7.96c-0.36,0-1.18,0.61-2.46,1.82c-1.28,1.21-2.78,2.74-4.49,4.59c-1.71,1.84-3.51,3.88-5.4,6.11
		c-1.89,2.23-3.63,4.35-5.23,6.38c-1.6,2.02-2.91,3.82-3.95,5.4c-1.04,1.57-1.55,2.63-1.55,3.17c0,0.45-0.24,0.62-0.71,0.51
		c-0.47-0.11-1-0.47-1.59-1.08c-0.59-0.61-1.11-1.42-1.59-2.43c-0.47-1.01-0.71-2.19-0.71-3.54c0-0.9,0.34-2.05,1.01-3.44
		c0.68-1.39,1.51-2.89,2.5-4.49c0.99-1.6,2.08-3.27,3.27-5.03c1.19-1.75,2.28-3.47,3.27-5.16c0.99-1.69,1.82-3.28,2.5-4.79
		c0.67-1.51,1.01-2.82,1.01-3.95c0-0.58,0.25-0.87,0.74-0.84c0.49,0.02,1.05,0.33,1.65,0.91c0.61,0.58,1.17,1.46,1.69,2.63
		c0.52,1.17,0.78,2.61,0.78,4.32c0,0.81-0.16,1.65-0.47,2.53s-0.65,1.68-1.01,2.39c-0.45,0.81-0.92,1.62-1.42,2.43
		c2.61-2.65,4.99-5.04,7.15-7.15c0.94-0.9,1.88-1.78,2.8-2.63c0.92-0.85,1.79-1.62,2.6-2.29s1.52-1.22,2.13-1.65
		c0.61-0.43,1.05-0.64,1.32-0.64c0.58,0,1.15,0.19,1.69,0.57c0.54,0.38,1.01,0.9,1.42,1.55c0.4,0.65,0.72,1.38,0.94,2.19
		c0.22,0.81,0.34,1.62,0.34,2.43c0,0.45-0.17,1.04-0.51,1.75c-0.34,0.72-0.78,1.55-1.32,2.5c0.81-0.81,1.87-1.84,3.17-3.1
		c1.3-1.26,2.61-2.47,3.91-3.64c1.3-1.17,2.52-2.17,3.64-3c1.12-0.83,1.91-1.25,2.36-1.25c0.58,0,1.1,0.19,1.55,0.57
		c0.45,0.38,0.84,0.9,1.18,1.55c0.34,0.65,0.6,1.39,0.78,2.2c0.18,0.81,0.27,1.62,0.27,2.43c0,0.54-0.39,1.52-1.18,2.94
		c-0.79,1.42-1.77,3.03-2.94,4.83c-1.17,1.8-2.39,3.67-3.68,5.61c-1.28,1.94-2.42,3.72-3.41,5.34c-0.99,1.62-1.71,2.95-2.16,3.99
		c-0.45,1.04-0.43,1.55,0.07,1.55c0.76,0,1.96-0.67,3.58-2.02c1.62-1.35,3.41-3.07,5.36-5.16c1.96-2.09,3.95-4.37,5.97-6.85
		c2.02-2.47,3.78-4.83,5.26-7.08c0.22-0.36,0.51-0.6,0.84-0.71c0.34-0.11,0.62-0.1,0.84,0.03c0.22,0.14,0.35,0.38,0.37,0.74
		c0.02,0.36-0.15,0.81-0.51,1.35c-0.23,0.36-0.78,1.17-1.65,2.43c-0.88,1.26-1.96,2.72-3.24,4.38c-1.28,1.67-2.7,3.43-4.25,5.3
		c-1.55,1.87-3.13,3.58-4.72,5.13c-1.6,1.55-3.17,2.82-4.72,3.81S536.58,716.4,535.37,716.4z"/>
	<path d="M583.81,716.4c-1.3,0-2.38-0.71-3.24-2.13c-0.85-1.42-1.28-3.41-1.28-5.97c0-0.72,0.16-1.55,0.47-2.5
		c0.31-0.94,0.73-1.94,1.25-3c0.52-1.06,1.11-2.14,1.79-3.24c0.68-1.1,1.37-2.19,2.09-3.27c1.62-2.47,3.49-5.08,5.6-7.83
		c-0.27,0-1.05,0.48-2.33,1.45c-1.28,0.97-2.77,2.16-4.45,3.58c-1.69,1.42-3.37,2.96-5.06,4.62c-1.69,1.67-3.07,3.19-4.15,4.59
		c-0.72,1.08-1.48,2.32-2.29,3.71c-0.81,1.39-1.56,2.73-2.26,4.01c-0.7,1.28-1.27,2.44-1.72,3.47c-0.45,1.04-0.68,1.71-0.68,2.02
		c0,0.45-0.2,0.56-0.61,0.34c-0.4-0.22-0.87-0.7-1.38-1.42c-0.52-0.72-0.98-1.62-1.38-2.7c-0.4-1.08-0.61-2.27-0.61-3.58
		c0-0.72,0.16-1.55,0.47-2.5c0.31-0.94,0.73-1.96,1.25-3.04c0.52-1.08,1.11-2.18,1.79-3.31c0.67-1.12,1.37-2.23,2.09-3.31
		c1.66-2.52,3.55-5.17,5.67-7.96c-0.36,0-1.18,0.61-2.46,1.82c-1.28,1.21-2.78,2.74-4.49,4.59c-1.71,1.84-3.51,3.88-5.4,6.11
		c-1.89,2.23-3.63,4.35-5.23,6.38c-1.6,2.02-2.91,3.82-3.95,5.4c-1.04,1.57-1.55,2.63-1.55,3.17c0,0.45-0.24,0.62-0.71,0.51
		c-0.47-0.11-1-0.47-1.59-1.08c-0.59-0.61-1.11-1.42-1.59-2.43c-0.47-1.01-0.71-2.19-0.71-3.54c0-0.9,0.34-2.05,1.01-3.44
		c0.68-1.39,1.51-2.89,2.5-4.49c0.99-1.6,2.08-3.27,3.27-5.03c1.19-1.75,2.28-3.47,3.27-5.16c0.99-1.69,1.82-3.28,2.5-4.79
		c0.67-1.51,1.01-2.82,1.01-3.95c0-0.58,0.25-0.87,0.74-0.84c0.49,0.02,1.05,0.33,1.65,0.91c0.61,0.58,1.17,1.46,1.69,2.63
		c0.52,1.17,0.78,2.61,0.78,4.32c0,0.81-0.16,1.65-0.47,2.53c-0.31,0.88-0.65,1.68-1.01,2.39c-0.45,0.81-0.92,1.62-1.42,2.43
		c2.61-2.65,4.99-5.04,7.15-7.15c0.94-0.9,1.88-1.78,2.8-2.63c0.92-0.85,1.79-1.62,2.6-2.29c0.81-0.67,1.52-1.22,2.13-1.65
		c0.61-0.43,1.05-0.64,1.32-0.64c0.58,0,1.15,0.19,1.69,0.57c0.54,0.38,1.01,0.9,1.42,1.55c0.4,0.65,0.72,1.38,0.94,2.19
		c0.22,0.81,0.34,1.62,0.34,2.43c0,0.45-0.17,1.04-0.51,1.75c-0.34,0.72-0.78,1.55-1.32,2.5c0.81-0.81,1.87-1.84,3.17-3.1
		s2.61-2.47,3.91-3.64c1.3-1.17,2.52-2.17,3.64-3c1.12-0.83,1.91-1.25,2.36-1.25c0.58,0,1.1,0.19,1.55,0.57
		c0.45,0.38,0.84,0.9,1.18,1.55c0.34,0.65,0.6,1.39,0.78,2.2c0.18,0.81,0.27,1.62,0.27,2.43c0,0.54-0.39,1.52-1.18,2.94
		c-0.79,1.42-1.77,3.03-2.94,4.83c-1.17,1.8-2.39,3.67-3.68,5.61c-1.28,1.94-2.42,3.72-3.41,5.34c-0.99,1.62-1.71,2.95-2.16,3.99
		c-0.45,1.04-0.43,1.55,0.07,1.55c0.76,0,1.96-0.67,3.58-2.02c1.62-1.35,3.41-3.07,5.36-5.16c1.96-2.09,3.95-4.37,5.97-6.85
		c2.02-2.47,3.78-4.83,5.26-7.08c0.22-0.36,0.51-0.6,0.84-0.71c0.34-0.11,0.62-0.1,0.84,0.03c0.22,0.14,0.35,0.38,0.37,0.74
		c0.02,0.36-0.15,0.81-0.51,1.35c-0.23,0.36-0.78,1.17-1.65,2.43c-0.88,1.26-1.96,2.72-3.24,4.38c-1.28,1.67-2.7,3.43-4.25,5.3
		c-1.55,1.87-3.13,3.58-4.72,5.13c-1.6,1.55-3.17,2.82-4.72,3.81C586.4,715.9,585.02,716.4,583.81,716.4z"/>
	<path d="M619.22,682.73c0.99,0,1.89,0.37,2.7,1.11c0.81,0.74,1.45,1.56,1.92,2.46c0.47,0.9,0.76,1.72,0.88,2.46
		c0.11,0.74-0.01,1.11-0.37,1.11c-1.31,0-2.85,0.56-4.62,1.69c-1.78,1.13-3.58,2.55-5.4,4.26c-1.82,1.71-3.58,3.56-5.26,5.55
		c-1.69,1.98-3.08,3.83-4.18,5.55c-1.1,1.71-1.83,3.14-2.19,4.26c-0.36,1.13-0.14,1.69,0.67,1.69c0.27,0,0.84-0.38,1.72-1.15
		c0.88-0.76,1.89-1.73,3.04-2.9c1.15-1.17,2.34-2.45,3.58-3.85c1.24-1.39,2.36-2.7,3.37-3.91c1.01-1.21,1.82-2.27,2.43-3.17
		c0.61-0.9,0.87-1.46,0.78-1.69c-0.18-0.31-0.03-0.47,0.44-0.47c0.47,0,1.03,0.18,1.69,0.54c0.65,0.36,1.26,0.92,1.82,1.69
		c0.56,0.77,0.84,1.75,0.84,2.97c0,1.21-0.32,2.53-0.94,3.95c-0.63,1.42-1.28,2.72-1.96,3.91c-0.67,1.19-1.19,2.18-1.55,2.97
		c-0.36,0.79-0.27,1.18,0.27,1.18s1.51-0.63,2.9-1.89c1.39-1.26,2.97-2.87,4.72-4.82c1.75-1.96,3.58-4.12,5.46-6.48
		c1.89-2.36,3.58-4.67,5.06-6.91c0.27-0.36,0.56-0.6,0.88-0.71s0.6-0.1,0.84,0.03c0.25,0.14,0.38,0.38,0.41,0.74
		c0.02,0.36-0.15,0.81-0.51,1.35c-0.27,0.36-0.84,1.16-1.72,2.39c-0.88,1.24-1.95,2.68-3.21,4.32c-1.26,1.64-2.65,3.37-4.18,5.19
		c-1.53,1.82-3.06,3.5-4.59,5.02c-1.53,1.53-2.99,2.77-4.39,3.74c-1.39,0.97-2.61,1.46-3.64,1.46c-0.67,0-1.35-0.22-2.02-0.67
		c-0.67-0.45-1.26-0.99-1.75-1.62c-0.5-0.63-0.9-1.28-1.21-1.96c-0.31-0.67-0.47-1.21-0.47-1.62c0-0.41,0.06-0.84,0.17-1.32
		c0.11-0.47,0.24-0.91,0.37-1.32c0.18-0.49,0.38-0.99,0.61-1.48c-1.62,1.84-3.15,3.51-4.59,4.99c-1.21,1.26-2.43,2.41-3.64,3.44
		c-1.21,1.04-2.14,1.55-2.77,1.55s-1.3-0.19-2.02-0.57c-0.72-0.38-1.41-0.91-2.06-1.59c-0.65-0.67-1.19-1.49-1.62-2.46
		c-0.43-0.97-0.64-2.06-0.64-3.27c0-1.3,0.42-2.84,1.25-4.62c0.83-1.78,1.92-3.62,3.27-5.53c1.35-1.91,2.89-3.8,4.62-5.67
		c1.73-1.87,3.49-3.54,5.26-5.03c1.78-1.48,3.5-2.68,5.16-3.58C616.5,683.18,617.96,682.73,619.22,682.73z"/>
	<path d="M653.9,712.89c0.49,0,1.47-0.63,2.93-1.89c1.46-1.26,3.13-2.87,4.99-4.82c1.87-1.96,3.78-4.12,5.73-6.48
		c1.96-2.36,3.68-4.67,5.16-6.92c0.27-0.36,0.56-0.6,0.88-0.71c0.31-0.11,0.6-0.1,0.84,0.03c0.25,0.13,0.38,0.38,0.41,0.74
		c0.02,0.36-0.15,0.81-0.51,1.35c-0.23,0.36-0.8,1.16-1.72,2.39c-0.92,1.24-2.05,2.68-3.37,4.32c-1.33,1.64-2.79,3.37-4.38,5.19
		c-1.6,1.82-3.18,3.5-4.76,5.03c-1.57,1.53-3.08,2.79-4.52,3.78c-1.44,0.99-2.68,1.48-3.71,1.48c-0.81,0-1.59-0.15-2.33-0.44
		c-0.74-0.29-1.4-0.78-1.96-1.45c-0.56-0.67-1.02-1.57-1.38-2.7c-0.36-1.12-0.54-2.5-0.54-4.12c-1.3,1.66-2.54,3.13-3.71,4.39
		c-1.04,1.08-2.1,2.07-3.21,2.97c-1.1,0.9-2.01,1.35-2.73,1.35c-0.72,0-1.5-0.15-2.33-0.44c-0.83-0.29-1.61-0.78-2.33-1.45
		c-0.72-0.67-1.32-1.54-1.79-2.6c-0.47-1.06-0.71-2.35-0.71-3.88c0-1.53,0.41-3.22,1.21-5.06c0.81-1.84,1.88-3.7,3.2-5.57
		c1.33-1.87,2.82-3.66,4.49-5.4c1.66-1.73,3.34-3.27,5.03-4.62c1.69-1.35,3.29-2.43,4.82-3.24c1.53-0.81,2.83-1.21,3.91-1.21
		c1.17,0,2.16,0.21,2.97,0.64c0.81,0.43,1.46,0.89,1.96,1.38c0.54,0.58,0.97,1.24,1.28,1.96c2.74-4.45,5.19-8.55,7.35-12.28
		c0.94-1.57,1.86-3.16,2.73-4.76c0.88-1.6,1.66-3.08,2.36-4.45c0.7-1.37,1.26-2.57,1.69-3.61c0.43-1.03,0.64-1.8,0.64-2.29
		c0-0.54,0.3-0.9,0.91-1.08c0.61-0.18,1.26-0.06,1.96,0.37c0.7,0.43,1.35,1.24,1.96,2.43c0.61,1.19,0.91,2.87,0.91,5.03
		c0,0.99-0.42,2.41-1.25,4.25c-0.83,1.84-1.91,3.95-3.24,6.31c-1.33,2.36-2.82,4.89-4.49,7.59c-1.66,2.7-3.33,5.39-4.99,8.06
		c-1.66,2.68-3.25,5.24-4.76,7.69c-1.51,2.45-2.78,4.62-3.81,6.51c-1.04,1.89-1.74,3.4-2.12,4.52
		C653.21,712.33,653.32,712.89,653.9,712.89z M637.17,713.09c0.68,0,1.69-0.61,3.04-1.82c1.35-1.21,2.81-2.73,4.39-4.55
		c1.57-1.82,3.16-3.8,4.76-5.94c1.6-2.14,2.96-4.12,4.08-5.94c1.12-1.82,1.9-3.34,2.33-4.55c0.43-1.21,0.28-1.82-0.44-1.82
		c-0.54,0-1.38,0.42-2.53,1.25c-1.15,0.83-2.41,1.92-3.78,3.27c-1.37,1.35-2.79,2.89-4.25,4.62c-1.46,1.73-2.8,3.49-4.01,5.26
		c-1.21,1.78-2.2,3.51-2.97,5.19c-0.77,1.69-1.15,3.18-1.15,4.49c0,0.09,0.02,0.18,0.07,0.27
		C636.79,713,636.94,713.09,637.17,713.09z"/>
	<path d="M786.26,729.42c0-0.72,0.12-1.24,0.37-1.55c0.25-0.32,0.53-0.46,0.84-0.44c0.31,0.02,0.6,0.2,0.84,0.54
		c0.25,0.34,0.37,0.78,0.37,1.32c0,0.54-0.18,1.16-0.54,1.86c-0.36,0.7-0.96,1.35-1.79,1.96c-0.83,0.61-1.97,1.11-3.41,1.52
		c-1.44,0.41-3.24,0.61-5.4,0.61c-2.92,0-5.49-0.47-7.69-1.42c-2.2-0.94-4.11-2.2-5.7-3.78c-1.6-1.58-2.93-3.37-4.01-5.4
		s-1.93-4.14-2.56-6.34c-0.63-2.2-1.07-4.4-1.32-6.58c-0.25-2.18-0.37-4.19-0.37-6.04c0-2.79,0.24-5.39,0.71-7.79
		c0.47-2.41,1.02-4.51,1.65-6.31c0.72-2.11,1.53-4.05,2.43-5.8l-1.55,0.14c-1.89,0.45-3.78,0.89-5.67,1.32
		c-1.89,0.43-3.78,0.87-5.67,1.32c-0.85,0.9-2.04,2.1-3.54,3.61c-1.51,1.51-3.25,3.11-5.23,4.82c-1.98,1.71-4.15,3.45-6.51,5.23
		c-2.36,1.78-4.8,3.37-7.32,4.79c-2.52,1.42-5.09,2.58-7.72,3.47c-2.63,0.9-5.18,1.35-7.66,1.35c-2.92,0-5.54-0.55-7.86-1.65
		c-2.32-1.1-4.26-2.6-5.84-4.49c-1.57-1.89-2.78-4.1-3.61-6.65c-0.83-2.54-1.25-5.23-1.25-8.06c0-3.15,0.63-6.14,1.89-8.97
		c1.26-2.83,2.97-5.47,5.13-7.89c2.16-2.43,4.64-4.62,7.45-6.58c2.81-1.96,5.77-3.62,8.87-4.99c3.1-1.37,6.24-2.43,9.41-3.17
		c3.17-0.74,6.2-1.11,9.07-1.11c2.61,0,4.79,0.58,6.54,1.75c1.75,1.17,3.16,2.53,4.22,4.08c1.06,1.55,1.8,3.07,2.23,4.55
		c0.43,1.48,0.64,2.56,0.64,3.24c0,0.67-0.11,1.1-0.34,1.28c-0.23,0.18-0.47,0.25-0.74,0.2c-0.31-0.04-0.65-0.2-1.01-0.47
		c-0.5-1.21-1.33-2.32-2.5-3.31c-1.04-0.81-2.47-1.56-4.32-2.26c-1.84-0.7-4.32-1.05-7.42-1.05c-3.24,0-6.39,0.39-9.44,1.18
		c-3.06,0.79-5.94,1.83-8.64,3.14c-2.7,1.31-5.18,2.8-7.45,4.49c-2.27,1.69-4.23,3.45-5.87,5.3c-1.64,1.84-2.91,3.69-3.81,5.53
		c-0.9,1.84-1.35,3.55-1.35,5.13c0.14,2.52,0.7,4.77,1.69,6.75c0.4,0.85,0.94,1.69,1.62,2.5c0.67,0.81,1.5,1.53,2.46,2.16
		c0.97,0.63,2.1,1.14,3.41,1.52c1.31,0.38,2.83,0.57,4.59,0.57c2.61,0,5.37-0.51,8.3-1.52c2.92-1.01,5.76-2.25,8.5-3.71
		c2.74-1.46,5.3-2.98,7.66-4.55c2.36-1.57,4.31-2.95,5.84-4.12c-1.71,0.36-3.26,0.66-4.66,0.91c-1.39,0.25-2.61,0.44-3.64,0.57
		c-2.88,0.36-5.28,0.21-7.22-0.44c-1.93-0.65-3.5-1.55-4.69-2.7c-1.19-1.15-2.07-2.38-2.63-3.71c-0.56-1.33-0.91-2.46-1.05-3.41
		s-0.12-1.54,0.03-1.79c0.16-0.25,0.35-0.33,0.57-0.24c0.27,0.14,0.59,0.41,0.94,0.81c0.09,0.72,0.88,1.36,2.36,1.92
		c1.48,0.56,3.31,0.99,5.47,1.28c2.16,0.29,4.5,0.46,7.02,0.51c2.52,0.05,4.86-0.07,7.02-0.34c1.98-0.22,3.83-0.45,5.57-0.67
		c1.73-0.22,3.25-0.43,4.55-0.61l0.47-0.41c4.18-4.18,7.94-8.03,11.27-11.54c1.39-1.48,2.78-2.99,4.15-4.52
		c1.37-1.53,2.59-2.95,3.64-4.25c1.06-1.3,1.91-2.47,2.56-3.51c0.65-1.03,0.98-1.8,0.98-2.29c0-0.49,0.43-0.58,1.28-0.27
		c0.85,0.32,1.81,0.93,2.87,1.86c1.06,0.92,2.01,2.1,2.87,3.54c0.85,1.44,1.28,2.99,1.28,4.66c0,0.36-0.21,1.05-0.64,2.06
		c-0.43,1.01-0.96,2.16-1.59,3.44c-0.63,1.28-1.31,2.6-2.02,3.95c-0.72,1.35-1.35,2.54-1.89,3.58l7.76-1.28
		c0.94-0.14,1.62-0.25,2.02-0.34c0.4-0.09,0.67-0.18,0.81-0.27c0.14-0.09,0.2-0.17,0.2-0.24c0-0.07,0.11-0.1,0.34-0.1
		c0.36-0.09,0.6-0.01,0.71,0.24c0.11,0.25,0.17,0.55,0.17,0.91c0,0.63-0.43,1.17-1.28,1.62c-0.86,0.45-2.29,0.94-4.32,1.48
		c-0.72,0.23-1.51,0.43-2.36,0.61c-0.77,0.23-1.66,0.45-2.7,0.67c-1.04,0.23-2.18,0.5-3.44,0.81l-0.81,1.62
		c-1.35,3.01-2.54,6.03-3.58,9.04c-0.45,1.3-0.89,2.66-1.32,4.08c-0.43,1.42-0.81,2.84-1.15,4.28c-0.34,1.44-0.61,2.86-0.81,4.25
		c-0.2,1.39-0.3,2.72-0.3,3.98c0,4.23,0.52,7.84,1.55,10.83c1.03,2.99,2.29,5.44,3.78,7.35c1.48,1.91,3.02,3.31,4.62,4.18
		c1.6,0.88,2.96,1.32,4.08,1.32l1.69,0.07c0.81,0,1.67-0.11,2.6-0.34c0.92-0.23,1.76-0.54,2.53-0.94c0.76-0.4,1.41-0.9,1.92-1.48
		C786,730.79,786.26,730.13,786.26,729.42z M762.92,680.5c0.27-0.58,0.64-1.32,1.11-2.19c0.47-0.88,0.98-1.82,1.52-2.83
		c0.54-1.01,1.11-2.06,1.72-3.14c0.61-1.08,1.22-2.14,1.86-3.17c1.39-2.43,2.9-4.97,4.52-7.62l-19.29,20.24l5.53-0.88L762.92,680.5z
		"/>
	<path d="M806.91,716.4c-1.3,0-2.38-0.71-3.24-2.13c-0.85-1.42-1.28-3.41-1.28-5.97c0-0.72,0.16-1.55,0.47-2.5
		c0.31-0.94,0.73-1.94,1.25-3c0.52-1.06,1.11-2.14,1.79-3.24c0.68-1.1,1.37-2.19,2.09-3.27c1.62-2.47,3.49-5.08,5.6-7.83
		c-0.27,0-1.05,0.48-2.33,1.45c-1.28,0.97-2.77,2.16-4.45,3.58c-1.69,1.42-3.37,2.96-5.06,4.62c-1.69,1.67-3.07,3.19-4.15,4.59
		c-0.72,1.08-1.48,2.32-2.29,3.71c-0.81,1.39-1.56,2.73-2.26,4.01c-0.7,1.28-1.27,2.44-1.72,3.47c-0.45,1.04-0.68,1.71-0.68,2.02
		c0,0.45-0.2,0.56-0.61,0.34c-0.4-0.22-0.87-0.7-1.38-1.42c-0.52-0.72-0.98-1.62-1.38-2.7c-0.4-1.08-0.61-2.27-0.61-3.58
		c0-0.72,0.16-1.55,0.47-2.5c0.31-0.94,0.73-1.96,1.25-3.04c0.52-1.08,1.11-2.18,1.79-3.31c0.67-1.12,1.37-2.23,2.09-3.31
		c1.66-2.52,3.55-5.17,5.67-7.96c-0.36,0-1.18,0.61-2.46,1.82c-1.28,1.21-2.78,2.74-4.49,4.59c-1.71,1.84-3.51,3.88-5.4,6.11
		c-1.89,2.23-3.63,4.35-5.23,6.38c-1.6,2.02-2.91,3.82-3.95,5.4c-1.04,1.57-1.55,2.63-1.55,3.17c0,0.45-0.24,0.62-0.71,0.51
		c-0.47-0.11-1-0.47-1.59-1.08c-0.59-0.61-1.11-1.42-1.59-2.43c-0.47-1.01-0.71-2.19-0.71-3.54c0-0.9,0.34-2.05,1.01-3.44
		c0.68-1.39,1.51-2.89,2.5-4.49c0.99-1.6,2.08-3.27,3.27-5.03c1.19-1.75,2.28-3.47,3.27-5.16c0.99-1.69,1.82-3.28,2.5-4.79
		c0.67-1.51,1.01-2.82,1.01-3.95c0-0.58,0.25-0.87,0.74-0.84c0.49,0.02,1.05,0.33,1.65,0.91c0.61,0.58,1.17,1.46,1.69,2.63
		c0.52,1.17,0.78,2.61,0.78,4.32c0,0.81-0.16,1.65-0.47,2.53c-0.31,0.88-0.65,1.68-1.01,2.39c-0.45,0.81-0.92,1.62-1.42,2.43
		c2.61-2.65,4.99-5.04,7.15-7.15c0.94-0.9,1.88-1.78,2.8-2.63c0.92-0.85,1.79-1.62,2.6-2.29c0.81-0.67,1.52-1.22,2.13-1.65
		c0.61-0.43,1.05-0.64,1.32-0.64c0.58,0,1.15,0.19,1.69,0.57c0.54,0.38,1.01,0.9,1.42,1.55c0.4,0.65,0.72,1.38,0.94,2.19
		c0.22,0.81,0.34,1.62,0.34,2.43c0,0.45-0.17,1.04-0.51,1.75c-0.34,0.72-0.78,1.55-1.32,2.5c0.81-0.81,1.87-1.84,3.17-3.1
		s2.61-2.47,3.91-3.64c1.3-1.17,2.52-2.17,3.64-3c1.12-0.83,1.91-1.25,2.36-1.25c0.58,0,1.1,0.19,1.55,0.57
		c0.45,0.38,0.84,0.9,1.18,1.55c0.34,0.65,0.6,1.39,0.78,2.2c0.18,0.81,0.27,1.62,0.27,2.43c0,0.54-0.39,1.52-1.18,2.94
		c-0.79,1.42-1.77,3.03-2.94,4.83c-1.17,1.8-2.39,3.67-3.68,5.61c-1.28,1.94-2.42,3.72-3.41,5.34c-0.99,1.62-1.71,2.95-2.16,3.99
		c-0.45,1.04-0.43,1.55,0.07,1.55c0.76,0,1.96-0.67,3.58-2.02c1.62-1.35,3.41-3.07,5.36-5.16c1.96-2.09,3.95-4.37,5.97-6.85
		c2.02-2.47,3.78-4.83,5.26-7.08c0.22-0.36,0.51-0.6,0.84-0.71c0.34-0.11,0.62-0.1,0.84,0.03c0.22,0.14,0.35,0.38,0.37,0.74
		c0.02,0.36-0.15,0.81-0.51,1.35c-0.23,0.36-0.78,1.17-1.65,2.43c-0.88,1.26-1.96,2.72-3.24,4.38c-1.28,1.67-2.7,3.43-4.25,5.3
		c-1.55,1.87-3.13,3.58-4.72,5.13c-1.6,1.55-3.17,2.82-4.72,3.81S808.12,716.4,806.91,716.4z"/>
	<path d="M847.72,692.51c0.27-0.36,0.56-0.58,0.88-0.67c0.31-0.09,0.6-0.07,0.84,0.07c0.25,0.14,0.38,0.38,0.41,0.74
		c0.02,0.36-0.15,0.81-0.51,1.35c-0.23,0.36-0.8,1.16-1.72,2.39c-0.92,1.24-2.03,2.68-3.34,4.32c-1.3,1.64-2.74,3.38-4.32,5.23
		c-1.57,1.84-3.15,3.53-4.72,5.06c-1.57,1.53-3.08,2.79-4.52,3.78c-1.44,0.99-2.68,1.48-3.71,1.48c-1.31,0-2.36-0.3-3.17-0.91
		c-0.81-0.61-1.44-1.37-1.89-2.29c-0.45-0.92-0.74-1.92-0.88-3c-0.14-1.08-0.16-2.07-0.07-2.97c0.09-1.21,0.54-2.62,1.35-4.22
		c0.81-1.6,1.75-3.32,2.83-5.16c1.08-1.84,2.19-3.77,3.34-5.77s2.12-4.01,2.93-6.04c0.14-0.31,0.22-0.65,0.27-1.01
		c0.04-0.36,0.11-0.69,0.2-0.98c0.09-0.29,0.22-0.53,0.4-0.71c0.18-0.18,0.47-0.27,0.88-0.27c0.41,0,0.88,0.17,1.42,0.51
		c0.54,0.34,1.03,0.83,1.48,1.48c0.45,0.65,0.81,1.47,1.08,2.46c0.27,0.99,0.34,2.14,0.2,3.44c-0.09,0.9-0.52,2.06-1.28,3.47
		c-0.77,1.42-1.65,2.93-2.66,4.55c-1.01,1.62-2.04,3.25-3.07,4.89c-1.04,1.64-1.84,3.14-2.43,4.49c-0.59,1.35-0.84,2.44-0.78,3.27
		c0.07,0.83,0.69,1.25,1.85,1.25c0.49,0,1.47-0.63,2.94-1.89c1.46-1.26,3.1-2.87,4.92-4.82c1.82-1.96,3.71-4.13,5.67-6.51
		C844.52,697.15,846.24,694.81,847.72,692.51z M840.91,680.98c-0.4,0-0.84-0.17-1.32-0.51c-0.47-0.34-0.91-0.84-1.32-1.52
		c-0.4-0.67-0.73-1.49-0.98-2.46c-0.25-0.97-0.3-2.06-0.17-3.27c0.09-1.21,0.34-2.25,0.74-3.1c0.4-0.85,0.85-1.53,1.35-2.02
		c0.49-0.49,1.01-0.85,1.55-1.08c0.54-0.22,1.01-0.34,1.42-0.34c0.4,0,0.95,0.12,1.65,0.37c0.7,0.25,1.38,0.57,2.06,0.98
		c0.68,0.41,1.25,0.87,1.72,1.38c0.47,0.52,0.69,1.07,0.64,1.65c-0.05,0.58-0.2,1.07-0.47,1.45c-0.27,0.38-0.61,0.78-1.01,1.18
		c-0.4,0.41-0.85,0.89-1.35,1.45c-0.5,0.56-1.01,1.29-1.55,2.19c-0.54,0.9-0.94,1.6-1.21,2.09c-0.27,0.49-0.49,0.85-0.67,1.08
		c-0.18,0.23-0.34,0.36-0.47,0.41C841.38,680.95,841.18,680.98,840.91,680.98z"/>
	<path d="M859.39,716.4c-1.31,0-2.39-0.8-3.27-2.39c-0.88-1.6-1.32-3.68-1.32-6.24c0-0.72,0.15-1.54,0.44-2.46
		c0.29-0.92,0.67-1.89,1.15-2.9c0.47-1.01,1-2.06,1.59-3.14c0.58-1.08,1.19-2.14,1.82-3.17c1.48-2.38,3.15-4.88,4.99-7.49
		c-0.36,0-1.15,0.56-2.36,1.69c-1.21,1.12-2.62,2.54-4.22,4.25c-1.6,1.71-3.27,3.6-5.03,5.67c-1.75,2.07-3.36,4.06-4.82,5.97
		c-1.46,1.91-2.68,3.6-3.64,5.06c-0.97,1.47-1.45,2.47-1.45,3.02c0,1.28-0.24,1.97-0.71,2.06c-0.47,0.09-1-0.18-1.59-0.83
		c-0.59-0.64-1.11-1.56-1.59-2.77c-0.47-1.2-0.71-2.48-0.71-3.83c0-0.9,0.33-2.02,0.98-3.37c0.65-1.35,1.47-2.81,2.46-4.39
		c0.99-1.57,2.07-3.22,3.24-4.92c1.17-1.71,2.25-3.37,3.24-4.99c0.99-1.62,1.81-3.17,2.46-4.66c0.65-1.48,0.98-2.79,0.98-3.91
		c0-0.58,0.26-0.87,0.78-0.84c0.52,0.02,1.08,0.33,1.69,0.91c0.61,0.58,1.17,1.46,1.69,2.63c0.52,1.17,0.78,2.59,0.78,4.25
		c0,0.85-0.12,1.61-0.37,2.26c-0.25,0.65-0.51,1.23-0.78,1.72c-0.36,0.54-0.74,1.06-1.15,1.55c2.29-2.34,4.43-4.41,6.41-6.21
		c0.85-0.76,1.7-1.53,2.53-2.29c0.83-0.76,1.62-1.44,2.36-2.02c0.74-0.58,1.4-1.06,1.99-1.42c0.58-0.36,1.01-0.54,1.28-0.54
		c0.58,0,1.11,0.19,1.59,0.57c0.47,0.38,0.87,0.9,1.18,1.55c0.31,0.65,0.56,1.38,0.74,2.19c0.18,0.81,0.27,1.62,0.27,2.43
		c0,0.54-0.38,1.5-1.15,2.87c-0.77,1.37-1.71,2.94-2.83,4.69c-1.12,1.75-2.31,3.57-3.54,5.43c-1.24,1.87-2.33,3.58-3.27,5.13
		c-0.94,1.55-1.63,2.83-2.06,3.85c-0.43,1.01-0.37,1.52,0.17,1.52c0.99,0,2.3-0.65,3.95-1.96c1.64-1.3,3.4-2.96,5.26-4.96
		c1.87-2,3.74-4.22,5.63-6.65s3.58-4.77,5.06-7.02c0.22-0.36,0.51-0.6,0.84-0.71c0.34-0.11,0.62-0.1,0.84,0.03
		c0.22,0.14,0.35,0.38,0.37,0.74c0.02,0.36-0.15,0.81-0.51,1.35c-0.23,0.36-0.79,1.17-1.69,2.43c-0.9,1.26-1.99,2.72-3.27,4.39
		c-1.28,1.66-2.7,3.43-4.25,5.3c-1.55,1.87-3.13,3.58-4.72,5.13c-1.6,1.55-3.13,2.85-4.59,3.88
		C861.81,715.88,860.52,716.4,859.39,716.4z"/>
</g>
<g>
	<path d="M199.09,564.71c-6.05,0-12.47-0.57-19.25-1.72c-6.78-1.15-13.53-2.98-20.23-5.52c-6.7-2.54-13.16-5.93-19.37-10.17
		c-6.21-4.25-11.69-9.48-16.43-15.69c-4.74-6.21-8.5-13.48-11.28-21.82c-2.78-8.34-4.17-17.9-4.17-28.69
		c0-10.79,2.28-20.43,6.86-28.93c4.57-8.5,10.53-15.98,17.88-22.43c7.35-6.46,15.63-11.97,24.86-16.55
		c9.22-4.57,18.37-8.29,27.43-11.16c9.06-2.86,17.64-4.94,25.72-6.25c8.08-1.31,14.74-1.96,19.96-1.96
		c-2.92-2.94-5.43-6.45-7.54-10.54c-1.95-3.43-3.69-7.6-5.23-12.5c-1.54-4.9-2.31-10.54-2.31-16.92c0-7.36,2.27-14.5,6.81-21.45
		c4.54-6.95,10.55-13.03,18.02-18.27c7.47-5.23,16.07-9.44,25.8-12.63c9.72-3.19,19.74-4.78,30.03-4.78c10.46,0,19,1.31,25.62,3.92
		c6.62,2.62,11.81,5.68,15.57,9.19c3.76,3.52,6.37,7.03,7.85,10.54c1.47,3.52,2.21,6.09,2.21,7.72c0,1.8-0.33,3.06-0.98,3.8
		c-0.66,0.74-1.43,1.19-2.33,1.35c-0.9,0.16-1.68,0.04-2.33-0.37c-0.66-0.41-0.98-0.94-0.98-1.59c-2.13-3.27-5.15-6.21-9.07-8.83
		c-3.43-2.29-8.01-4.33-13.73-6.13c-5.72-1.8-13.08-2.7-22.07-2.7c-8.17,0-15.32,1.72-21.45,5.15c-6.13,3.43-11.24,7.48-15.32,12.14
		c-4.09,4.66-7.15,9.44-9.19,14.34c-2.05,4.9-3.06,8.83-3.06,11.77c0,6.7,0.74,12.22,2.21,16.55c1.47,4.33,3.31,7.93,5.52,10.79
		c2.21,2.86,4.57,5.03,7.11,6.5c2.53,1.47,4.9,2.66,7.11,3.56c2.21,0.9,4.05,1.59,5.52,2.08c1.47,0.49,2.21,1.07,2.21,1.72
		c0,1.15-0.08,2.33-0.25,3.56c-0.16,1.23-1.02,2.37-2.57,3.43c-1.56,1.06-4.21,1.92-7.97,2.57c-3.76,0.65-9.24,0.98-16.43,0.98
		c-15.66,0-29.6,2.13-41.82,6.37c-12.23,4.25-22.5,9.93-30.81,17.04c-8.32,7.11-14.68,15.32-19.08,24.64
		c-4.4,9.32-6.6,19.12-6.6,29.42c0,8.34,1.02,16.3,3.06,23.9c2.04,7.6,5.06,14.34,9.07,20.23c4,5.88,8.91,10.54,14.71,13.98
		c5.8,3.43,12.38,5.15,19.74,5.15c5.72,0,10.21-0.29,13.48-0.86c3.27-0.57,5.72-1.27,7.36-2.08c1.8-0.82,2.86-1.8,3.19-2.94
		c-0.33-0.33-0.57-1.06-0.74-2.21c-0.16-0.82-0.29-2.13-0.37-3.92c-0.08-1.8-0.12-4.25-0.12-7.36c0-3.1,0.6-5.76,1.82-7.97
		c1.21-2.21,2.55-4.13,4-5.76c1.78-1.8,3.72-3.35,5.82-4.66c-0.82,1.96-1.15,4.33-0.98,7.11c0.16,2.78,0.57,5.39,1.23,7.85
		c0.66,2.94,1.56,5.97,2.72,9.07c2.64-1.31,5.02-2.86,7.16-4.66c1.81-1.63,3.46-3.72,4.94-6.25c1.48-2.53,2.23-5.6,2.23-9.19
		c0-3.59-0.66-6.17-1.99-7.72c-1.33-1.55-2.74-2.66-4.23-3.31c-1.82-0.65-3.82-0.82-5.97-0.49c0.65-1.47,1.56-2.86,2.71-4.17
		c0.98-0.98,2.3-1.92,3.94-2.82c1.64-0.9,3.7-1.35,6.17-1.35c4.77,0,8.87,1.72,12.32,5.15c3.45,3.43,5.18,9.07,5.18,16.92
		c0,3.43-0.78,6.78-2.33,10.05c-1.56,3.27-3.56,6.29-6.01,9.07s-5.15,5.39-8.09,7.85c-2.94,2.45-5.8,4.57-8.58,6.37
		c4.74,7.36,10.05,13.85,15.94,19.49c5.88,5.64,12.01,10.3,18.39,13.97c6.37,3.68,12.71,6.25,19,7.72
		c6.29,1.47,12.3,1.63,18.02,0.49c2.78-0.65,5.03-1.47,6.74-2.45c1.72-0.98,3.06-1.96,4.05-2.94c1.14-1.15,1.96-2.29,2.45-3.43
		c-1.15-1.31-1.68-2.86-1.59-4.66c0.08-1.8,0.49-3.19,1.23-4.17c0.74-0.98,1.59-1.27,2.57-0.86c0.98,0.41,1.8,2.16,2.45,5.27
		c0.65,3.27,0.57,6.53-0.25,9.81c-0.82,3.27-2.45,6.41-4.9,9.44c-2.45,3.02-5.76,5.72-9.93,8.09c-4.17,2.37-9.44,4.21-15.81,5.52
		c-6.86,1.47-13.65,0.98-20.35-1.47c-6.7-2.45-13.16-6.17-19.37-11.15c-6.21-4.99-12.06-11.03-17.53-18.14
		c-5.48-7.11-10.34-14.67-14.59-22.68c-2.45,1.14-5.23,2.12-8.34,2.94c-2.78,0.82-6.01,1.47-9.68,1.96
		C207.79,564.46,203.66,564.71,199.09,564.71z"/>
	<path d="M407,536.02c-4.74,0-8.67-2.57-11.77-7.72c-3.11-5.15-4.66-12.38-4.66-21.7c0-2.61,0.57-5.64,1.72-9.07
		c1.14-3.43,2.65-7.07,4.54-10.91c1.88-3.84,4.05-7.76,6.5-11.77c2.45-4,4.98-7.97,7.6-11.89c5.88-8.99,12.66-18.47,20.35-28.44
		c-0.98,0-3.8,1.76-8.46,5.27c-4.66,3.52-10.05,7.85-16.18,12.99c-6.13,5.15-12.26,10.75-18.39,16.79
		c-6.13,6.05-11.16,11.61-15.08,16.67c-2.62,3.92-5.39,8.42-8.34,13.48c-2.94,5.07-5.68,9.93-8.21,14.59
		c-2.54,4.66-4.62,8.87-6.25,12.63c-1.64,3.76-2.45,6.21-2.45,7.36c0,1.64-0.74,2.04-2.21,1.23c-1.47-0.82-3.15-2.53-5.03-5.15
		c-1.88-2.61-3.55-5.88-5.03-9.81c-1.47-3.92-2.21-8.25-2.21-12.99c0-2.61,0.57-5.64,1.72-9.07c1.14-3.43,2.65-7.11,4.54-11.03
		c1.88-3.92,4.05-7.93,6.5-12.01c2.45-4.08,4.98-8.09,7.6-12.01c6.05-9.15,12.91-18.79,20.59-28.93c-1.31,0-4.29,2.21-8.95,6.62
		c-4.66,4.41-10.09,9.97-16.3,16.67c-6.21,6.7-12.75,14.1-19.61,22.19c-6.86,8.09-13.2,15.81-19,23.17
		c-5.8,7.35-10.58,13.89-14.34,19.61c-3.76,5.72-5.64,9.56-5.64,11.52c0,1.64-0.86,2.24-2.57,1.84c-1.72-0.41-3.64-1.72-5.76-3.92
		c-2.13-2.21-4.05-5.15-5.76-8.83c-1.72-3.68-2.57-7.97-2.57-12.87c0-3.27,1.23-7.44,3.68-12.5c2.45-5.06,5.47-10.5,9.07-16.3
		c3.59-5.8,7.56-11.89,11.89-18.27c4.33-6.37,8.29-12.63,11.89-18.76c3.59-6.13,6.62-11.93,9.07-17.41
		c2.45-5.47,3.68-10.26,3.68-14.34c0-2.12,0.9-3.14,2.7-3.06c1.8,0.08,3.8,1.19,6.01,3.31c2.21,2.13,4.25,5.31,6.13,9.56
		c1.88,4.25,2.82,9.48,2.82,15.69c0,2.94-0.57,6.01-1.72,9.19c-1.15,3.19-2.37,6.09-3.68,8.7c-1.64,2.94-3.35,5.88-5.15,8.83
		c9.48-9.64,18.14-18.3,25.99-25.99c3.43-3.27,6.82-6.45,10.17-9.56c3.35-3.1,6.5-5.88,9.44-8.34c2.94-2.45,5.52-4.45,7.72-6.01
		c2.21-1.55,3.8-2.33,4.78-2.33c2.12,0,4.17,0.7,6.13,2.08c1.96,1.39,3.68,3.27,5.15,5.64c1.47,2.37,2.61,5.03,3.43,7.97
		c0.82,2.94,1.23,5.88,1.23,8.83c0,1.64-0.61,3.76-1.84,6.37c-1.23,2.62-2.82,5.64-4.78,9.07c2.94-2.94,6.78-6.7,11.52-11.28
		c4.74-4.57,9.48-8.99,14.22-13.24c4.74-4.25,9.15-7.88,13.24-10.91c4.08-3.02,6.95-4.54,8.58-4.54c2.12,0,4,0.7,5.64,2.09
		c1.63,1.39,3.06,3.28,4.29,5.65c1.23,2.38,2.16,5.04,2.82,7.99c0.65,2.95,0.98,5.9,0.98,8.85c0,1.97-1.43,5.53-4.29,10.69
		c-2.86,5.16-6.42,11.02-10.66,17.57c-4.25,6.55-8.7,13.35-13.36,20.4c-4.66,7.04-8.79,13.51-12.38,19.41
		c-3.6,5.9-6.21,10.73-7.85,14.5c-1.64,3.77-1.55,5.65,0.25,5.65c2.78,0,7.11-2.45,12.99-7.36c5.88-4.9,12.38-11.16,19.49-18.76
		c7.11-7.6,14.34-15.89,21.7-24.89c7.36-8.99,13.73-17.57,19.12-25.74c0.82-1.31,1.84-2.16,3.06-2.57c1.23-0.41,2.25-0.37,3.06,0.12
		c0.82,0.49,1.26,1.39,1.35,2.7c0.08,1.31-0.53,2.94-1.84,4.9c-0.82,1.31-2.82,4.25-6.01,8.83c-3.19,4.58-7.11,9.89-11.77,15.94
		c-4.66,6.05-9.81,12.47-15.45,19.25c-5.64,6.78-11.36,12.99-17.16,18.63c-5.8,5.64-11.52,10.26-17.16,13.85
		C416.44,534.22,411.41,536.02,407,536.02z"/>
	<path d="M587.2,450.21c0.82-1.31,1.84-2.16,3.06-2.57c1.23-0.41,2.25-0.37,3.06,0.12c0.82,0.49,1.26,1.39,1.35,2.7
		c0.08,1.31-0.53,2.94-1.84,4.9c-0.82,1.31-2.86,4.21-6.13,8.7c-3.27,4.5-7.28,9.73-12.01,15.69c-4.74,5.97-9.97,12.26-15.69,18.88
		c-5.72,6.62-11.44,12.71-17.16,18.26c-5.72,5.56-11.2,10.14-16.43,13.73c-5.23,3.6-9.73,5.39-13.48,5.39
		c-4.74,0-8.58-0.9-11.52-2.7c-2.94-1.8-5.23-4.08-6.86-6.87c-1.64-2.78-2.78-5.92-3.43-9.44c-0.66-3.51-0.98-6.9-0.98-10.17
		c0-3.43,1.1-7.56,3.31-12.38c2.21-4.82,4.9-9.97,8.09-15.45c3.19-5.47,6.54-11.16,10.05-17.04c3.51-5.88,6.58-11.68,9.19-17.41
		c-3.6,1.47-8.21,2.98-13.85,4.54c-5.64,1.55-11.81,2.33-18.51,2.33c-1.8,0-3.8-0.33-6.01-0.98c-2.21-0.65-4.29-2.08-6.25-4.29
		c-1.96-2.21-3.6-5.35-4.9-9.44c-1.31-4.08-1.96-9.56-1.96-16.43c0-9.48,1.59-18.27,4.78-26.36c3.19-8.09,7.15-15.04,11.89-20.84
		c4.74-5.8,9.76-10.34,15.08-13.61c5.31-3.27,10.09-4.9,14.34-4.9c4.57,0,8.5,1.39,11.77,4.17c3.27,2.78,4.9,6.7,4.9,11.77
		c0,2.45-0.49,5.31-1.47,8.58c-0.98,3.27-2.29,6.66-3.92,10.17c-1.64,3.52-3.47,7.15-5.52,10.91c-2.05,3.76-4.13,7.36-6.25,10.79
		c-5.07,8.17-10.71,16.67-16.92,25.5c6.05-3.1,11.68-6.05,16.92-8.83c4.41-2.29,8.7-4.49,12.87-6.62c4.17-2.12,6.9-3.59,8.21-4.41
		c1.63-0.98,3.27-2,4.9-3.06c1.63-1.06,3.43-0.77,5.4,0.86c0.98,0.82,2.73,2.25,5.27,4.29c2.53,2.05,4.78,4.45,6.74,7.23
		c1.96,2.78,3.23,5.8,3.8,9.07c0.57,3.27-0.53,6.46-3.31,9.56c-0.33,0.33-0.57,0.61-0.74,0.86c-0.16,0.25-0.41,0.53-0.73,0.86
		c-2.13,2.78-4.99,6.62-8.58,11.52c-3.6,4.9-7.36,10.22-11.28,15.94c-3.92,5.72-7.68,11.49-11.28,17.29
		c-3.6,5.8-6.42,11.12-8.46,15.94c-2.04,4.82-3.03,8.75-2.94,11.77c0.08,3.03,1.92,4.54,5.52,4.54v0.24c1.8,0,5.35-2.29,10.67-6.87
		c5.31-4.57,11.28-10.42,17.9-17.53c6.62-7.11,13.48-14.99,20.6-23.66C575.55,466.8,581.8,458.39,587.2,450.21z M486.92,419.32
		c0,2.29,0.2,4.25,0.61,5.88c0.41,1.64,0.94,3.03,1.59,4.17c0.65,1.31,1.47,2.45,2.45,3.43c3.43-6.54,6.87-12.79,10.3-18.76
		c3.43-5.96,6.29-11.24,8.58-15.81c2.29-4.57,3.76-8.21,4.41-10.91c0.65-2.7-0.08-4.05-2.21-4.05c-2.13,0-4.66,1.31-7.6,3.92
		c-2.94,2.62-5.76,5.8-8.46,9.56c-2.7,3.76-4.99,7.72-6.87,11.89C487.86,412.82,486.92,416.38,486.92,419.32z"/>
	<path d="M641.14,413.68c3.59,0,6.87,1.35,9.81,4.05c2.94,2.7,5.27,5.68,6.99,8.95c1.72,3.27,2.78,6.25,3.19,8.95
		c0.41,2.7-0.04,4.05-1.35,4.05c-4.74,0-10.34,2.05-16.79,6.15c-6.46,4.1-12.99,9.26-19.61,15.49
		c-6.62,6.23-12.99,12.95-19.12,20.16c-6.13,7.21-11.2,13.94-15.2,20.17c-4.01,6.23-6.66,11.39-7.97,15.49
		c-1.31,4.1-0.49,6.15,2.45,6.15c0.98,0,3.06-1.39,6.25-4.17c3.19-2.78,6.86-6.29,11.03-10.54c4.17-4.25,8.5-8.91,12.99-13.98
		c4.49-5.06,8.58-9.81,12.26-14.22c3.68-4.41,6.62-8.25,8.83-11.52c2.21-3.27,3.14-5.31,2.82-6.13c-0.65-1.14-0.12-1.72,1.59-1.72
		c1.72,0,3.76,0.66,6.13,1.96c2.37,1.31,4.57,3.35,6.62,6.13c2.04,2.78,3.06,6.38,3.06,10.79c0,4.41-1.15,9.19-3.43,14.34
		c-2.29,5.15-4.66,9.89-7.11,14.22c-2.45,4.33-4.33,7.93-5.64,10.79c-1.31,2.86-0.98,4.29,0.98,4.29c1.96,0,5.47-2.29,10.54-6.87
		c5.06-4.57,10.79-10.42,17.16-17.53c6.37-7.11,12.99-14.96,19.86-23.54c6.87-8.58,12.99-16.96,18.39-25.13
		c0.98-1.31,2.04-2.16,3.19-2.57c1.14-0.41,2.16-0.37,3.06,0.12c0.9,0.49,1.39,1.39,1.47,2.7c0.08,1.31-0.53,2.94-1.84,4.9
		c-0.98,1.31-3.06,4.21-6.25,8.7c-3.19,4.5-7.07,9.73-11.65,15.69c-4.58,5.97-9.65,12.26-15.2,18.88
		c-5.56,6.62-11.12,12.7-16.67,18.25c-5.56,5.55-10.87,10.08-15.94,13.61c-5.07,3.53-9.48,5.29-13.24,5.29
		c-2.45,0-4.9-0.82-7.36-2.45c-2.45-1.63-4.58-3.59-6.37-5.88c-1.8-2.29-3.27-4.66-4.41-7.11c-1.15-2.45-1.72-4.41-1.72-5.88
		c0-1.47,0.2-3.06,0.61-4.78c0.41-1.72,0.86-3.31,1.35-4.78c0.65-1.8,1.39-3.59,2.21-5.39c-5.88,6.7-11.44,12.75-16.67,18.14
		c-4.41,4.58-8.83,8.75-13.24,12.5c-4.41,3.76-7.77,5.64-10.05,5.64c-2.29,0-4.74-0.69-7.36-2.08c-2.62-1.39-5.11-3.31-7.48-5.76
		c-2.37-2.45-4.33-5.43-5.88-8.95c-1.55-3.51-2.33-7.48-2.33-11.89c0-4.74,1.51-10.34,4.53-16.79c3.02-6.45,6.99-13.15,11.89-20.1
		c4.9-6.95,10.5-13.81,16.8-20.59c6.29-6.78,12.66-12.87,19.12-18.27c6.46-5.39,12.71-9.72,18.76-12.99
		C631.25,415.32,636.56,413.68,641.14,413.68z"/>
	<path d="M747.79,536.02c-4.74,0-8.7-2.9-11.89-8.7c-3.19-5.8-4.78-13.36-4.78-22.68c0-2.61,0.53-5.6,1.59-8.95
		c1.06-3.35,2.45-6.87,4.17-10.54c1.72-3.68,3.63-7.48,5.76-11.4c2.12-3.92,4.33-7.76,6.62-11.52c5.39-8.66,11.44-17.73,18.14-27.21
		c-1.31,0-4.17,2.05-8.58,6.13c-4.41,4.09-9.52,9.24-15.32,15.45c-5.8,6.21-11.89,13.08-18.27,20.59
		c-6.38,7.52-12.22,14.75-17.53,21.7c-5.31,6.95-9.73,13.08-13.24,18.41c-3.52,5.32-5.27,8.99-5.27,10.99c0,4.67-0.86,7.17-2.57,7.5
		c-1.72,0.33-3.64-0.67-5.76-3c-2.13-2.33-4.04-5.68-5.76-10.05c-1.72-4.37-2.57-9.01-2.57-13.91c0-3.27,1.18-7.35,3.55-12.26
		c2.37-4.9,5.35-10.21,8.95-15.94c3.59-5.72,7.52-11.68,11.77-17.9c4.25-6.21,8.17-12.26,11.77-18.14
		c3.59-5.88,6.58-11.52,8.95-16.92c2.37-5.39,3.56-10.13,3.56-14.22c0-2.12,0.94-3.15,2.82-3.06c1.88,0.08,3.92,1.19,6.13,3.31
		c2.21,2.13,4.25,5.31,6.13,9.56c1.88,4.25,2.82,9.4,2.82,15.45c0,3.11-0.45,5.85-1.35,8.21c-0.9,2.37-1.84,4.45-2.82,6.25
		c-1.31,1.96-2.7,3.84-4.17,5.64c8.34-8.5,16.1-16.02,23.29-22.56c3.1-2.78,6.17-5.55,9.19-8.34c3.02-2.78,5.88-5.23,8.58-7.36
		c2.7-2.12,5.11-3.84,7.23-5.15c2.12-1.31,3.68-1.96,4.66-1.96c2.12,0,4.04,0.7,5.76,2.08c1.72,1.39,3.15,3.27,4.29,5.64
		c1.14,2.37,2.04,5.03,2.7,7.97c0.65,2.94,0.98,5.88,0.98,8.83c0,1.96-1.39,5.44-4.17,10.42c-2.78,4.99-6.21,10.66-10.3,17.04
		c-4.09,6.38-8.38,12.96-12.87,19.74c-4.5,6.78-8.46,12.99-11.89,18.63c-3.43,5.64-5.93,10.3-7.48,13.98
		c-1.55,3.68-1.35,5.52,0.61,5.52c3.59,0,8.38-2.37,14.34-7.11c5.96-4.74,12.34-10.75,19.12-18.02
		c6.78-7.27,13.61-15.32,20.47-24.15c6.87-8.83,12.99-17.32,18.39-25.5c0.82-1.31,1.84-2.16,3.06-2.57
		c1.23-0.41,2.25-0.37,3.06,0.12c0.82,0.49,1.26,1.39,1.35,2.7c0.08,1.31-0.53,2.94-1.84,4.9c-0.82,1.31-2.86,4.25-6.13,8.83
		c-3.27,4.58-7.23,9.89-11.89,15.94c-4.66,6.05-9.81,12.47-15.45,19.25c-5.64,6.78-11.36,13-17.16,18.65
		c-5.8,5.65-11.36,10.35-16.67,14.1C756.57,534.15,751.87,536.02,747.79,536.02z"/>
	<path d="M894.9,449.23c0.98-1.31,2.04-2.12,3.19-2.45c1.14-0.33,2.16-0.24,3.06,0.25c0.9,0.49,1.39,1.39,1.47,2.7
		c0.08,1.31-0.53,2.94-1.84,4.9c-0.82,1.31-2.9,4.21-6.25,8.7c-3.35,4.5-7.4,9.73-12.14,15.69c-4.74,5.97-9.97,12.3-15.69,19
		c-5.72,6.7-11.44,12.83-17.16,18.39c-5.72,5.56-11.2,10.14-16.43,13.73c-5.23,3.6-9.73,5.39-13.48,5.39
		c-4.74,0-8.58-1.1-11.52-3.31c-2.94-2.21-5.23-4.98-6.86-8.34c-1.64-3.35-2.7-6.99-3.19-10.91c-0.49-3.92-0.57-7.52-0.25-10.79
		c0.33-4.41,1.96-9.52,4.9-15.32c2.94-5.8,6.38-12.05,10.3-18.76c3.92-6.7,7.97-13.69,12.14-20.96c4.17-7.27,7.72-14.59,10.66-21.94
		c0.49-1.14,0.82-2.37,0.98-3.68c0.16-1.31,0.41-2.49,0.73-3.56c0.33-1.06,0.82-1.92,1.47-2.57c0.65-0.65,1.72-0.98,3.19-0.98
		c1.47,0,3.19,0.61,5.15,1.84c1.96,1.23,3.76,3.03,5.4,5.39c1.63,2.37,2.94,5.36,3.92,8.95c0.98,3.6,1.23,7.77,0.74,12.5
		c-0.33,3.27-1.88,7.48-4.66,12.63c-2.78,5.15-6.01,10.66-9.69,16.55c-3.68,5.88-7.4,11.81-11.15,17.78
		c-3.76,5.97-6.7,11.4-8.83,16.3c-2.13,4.9-3.06,8.87-2.82,11.89c0.24,3.03,2.49,4.54,6.74,4.54c1.8,0,5.35-2.29,10.66-6.86
		c5.31-4.57,11.28-10.42,17.9-17.53c6.62-7.11,13.48-14.99,20.59-23.66C883.25,466.07,889.5,457.57,894.9,449.23z M870.13,407.3
		c-1.47,0-3.06-0.61-4.78-1.84c-1.72-1.23-3.31-3.06-4.78-5.52c-1.47-2.45-2.66-5.43-3.55-8.95c-0.9-3.51-1.1-7.48-0.61-11.89
		c0.33-4.41,1.23-8.17,2.7-11.28c1.47-3.1,3.1-5.55,4.9-7.36c1.8-1.8,3.68-3.1,5.64-3.92c1.96-0.82,3.68-1.23,5.15-1.23
		c1.47,0,3.47,0.45,6.01,1.35c2.53,0.9,5.03,2.08,7.48,3.56c2.45,1.47,4.53,3.15,6.25,5.03c1.72,1.88,2.49,3.88,2.33,6.01
		c-0.17,2.13-0.74,3.88-1.72,5.27c-0.98,1.39-2.21,2.82-3.68,4.29c-1.47,1.47-3.11,3.23-4.9,5.27c-1.8,2.05-3.68,4.7-5.64,7.97
		c-1.96,3.27-3.43,5.8-4.41,7.6c-0.98,1.8-1.8,3.11-2.45,3.92c-0.66,0.82-1.23,1.31-1.72,1.47
		C871.85,407.22,871.11,407.3,870.13,407.3z"/>
</g>
</svg>
